<svg id="SvgjsSvg1001" width="288" height="288" xmlns="http://www.w3.org/2000/svg" version="1.1" xmlns:xlink="http://www.w3.org/1999/xlink" xmlns:svgjs="http://svgjs.com/svgjs"><defs id="SvgjsDefs1002"></defs><g id="SvgjsG1008" transform="matrix(0.9167,0,0,0.9167,11.995200000000011,11.995245758056654)"><svg xmlns="http://www.w3.org/2000/svg" width="288" height="288" viewBox="0 0 32 32"><g transform="translate(0 -1020.362)" fill="#000000" class="color000 svgShape"><circle cx="16" cy="1036.362" r="16" fill="#ed2a26" fill-rule="evenodd" class="color239fdb svgShape"></circle><path fill="#cc2622" style="line-height:normal;text-indent:0;text-align:start;text-decoration-line:none;text-transform:none;block-progression:tb" d="M 21.208984 31.107422 A 15.99999 15.99999 0 0 0 21.796875 30.912109 A 15.99999 15.99999 0 0 0 23.257812 30.259766 A 15.99999 15.99999 0 0 0 24.644531 29.462891 A 15.99999 15.99999 0 0 0 25.945312 28.533203 A 15.99999 15.99999 0 0 0 27.146484 27.478516 A 15.99999 15.99999 0 0 0 28.238281 26.306641 A 15.99999 15.99999 0 0 0 29.205078 25.035156 A 15.99999 15.99999 0 0 0 30.041016 23.669922 A 15.99999 15.99999 0 0 0 30.736328 22.230469 A 15.99999 15.99999 0 0 0 31.109375 21.212891 L 21.517578 11.621094 L 20.380859 10.484375 L 19.267578 11.371094 C 19.248234 11.386453 19.220669 11.384418 19.199219 11.396484 L 16.802734 9 L 15.195312 9 L 15.037109 10.414062 C 15.013809 10.612763 14.859668 10.789844 14.666016 10.839844 C 14.185937 10.964844 13.726028 11.157956 13.298828 11.410156 C 13.12568 11.512756 12.889849 11.496094 12.732422 11.371094 L 11.619141 10.484375 L 10.482422 11.619141 L 11.369141 12.734375 C 11.494291 12.890975 11.511353 13.125728 11.410156 13.298828 C 11.158503 13.726128 10.966278 14.186016 10.841797 14.666016 C 10.791327 14.860216 10.613446 15.014109 10.414062 15.037109 L 9 15.197266 L 9 16.804688 L 11.394531 19.199219 C 11.382382 19.220713 11.384614 19.248205 11.369141 19.267578 L 10.482422 20.382812 L 11.619141 21.517578 L 21.208984 31.107422 z " color="#000" font-family="sans-serif" font-weight="400" transform="translate(0 1020.362)" class="color0b5ecd svgShape"></path><path fill="#ffffff" style="line-height:normal;text-indent:0;text-align:start;text-decoration-line:none;text-transform:none;block-progression:tb" d="m 7.1953125,1 1.6074219,0 0.1601562,1.4160156 c 0.022566,0.1993839 0.1768887,0.3772606 0.3710938,0.4277344 0.4799976,0.1245 0.9399036,0.3147062 1.3671876,0.5664062 0.173149,0.1025811 0.408979,0.086317 0.566406,-0.039062 L 12.380859,2.484375 13.517578,3.6191406 12.630859,4.734375 c -0.125156,0.1566689 -0.142207,0.391337 -0.04101,0.5644531 0.252168,0.4272 0.443412,0.8890407 0.568359,1.3691407 0.05115,0.1934941 0.22884,0.3468436 0.427735,0.3691406 L 15,7.1972656 15,8.8046875 13.585938,8.9648438 c -0.199384,0.022566 -0.377261,0.1768885 -0.427735,0.3710937 -0.124497,0.4799 -0.316722,0.9398875 -0.568359,1.3671875 -0.101192,0.173116 -0.08414,0.407784 0.04101,0.564453 l 0.886719,1.115234 -1.136719,1.134766 -1.113281,-0.886719 c -0.157427,-0.125379 -0.393257,-0.141643 -0.566406,-0.03906 -0.42721,0.2521 -0.8871183,0.443459 -1.3671876,0.568359 -0.1942052,0.05047 -0.3485275,0.228351 -0.3710938,0.427735 L 8.8027344,15 7.1972656,15 7.0371094,13.585938 C 7.0145431,13.386554 6.8602208,13.208677 6.6660156,13.158203 6.186018,13.033703 5.7261124,12.843497 5.2988281,12.591797 5.1256796,12.489216 4.8898492,12.50548 4.7324219,12.630859 L 3.6191406,13.517578 2.4824219,12.382812 3.3691406,11.267578 C 3.4942963,11.110909 3.5113483,10.876241 3.4101562,10.703125 3.1580001,10.275925 2.9667628,9.8159375 2.8417969,9.3359375 2.7913231,9.1417325 2.6134464,8.9874103 2.4140625,8.9648438 L 1,8.8046875 1,7.1972656 2.4140625,7.0371094 C 2.6134464,7.0145429 2.7913231,6.8602207 2.8417969,6.6660156 2.9662779,6.1860156 3.158503,5.7261281 3.4101562,5.2988281 3.5113484,5.1257119 3.4942964,4.8910438 3.3691406,4.734375 L 2.4824219,3.6191406 3.6191406,2.484375 4.7324219,3.3710938 C 4.8898491,3.4964733 5.1256795,3.5127374 5.2988281,3.4101562 5.7260276,3.1579563 6.1859368,2.9648438 6.6660156,2.8398438 6.8596683,2.7896127 7.0138044,2.6127618 7.0371094,2.4140625 Z M 8,4 C 5.7967838,4 3.9999973,5.7968 4,8 c -2.7e-6,2.2032 1.7967838,4 4,4 2.203216,0 4.000003,-1.7968 4,-4 3e-6,-2.2032 -1.796784,-4 -4,-4 z m 0,1 c 1.6627755,0 3.000002,1.3373 3,3 2e-6,1.6628 -1.3372245,3 -3,3 C 6.3372243,11 4.999998,9.6628 5,8 4.999998,6.3373 6.3372243,5 8,5 Z" color="#000" font-family="sans-serif" font-weight="400" overflow="visible" transform="translate(8 1028.362)" class="colorfff svgShape"></path></g></svg></g></svg>