<svg id="Layer_1" enable-background="new 0 0 512 512" height="512" viewBox="0 0 512 512" width="512" xmlns="http://www.w3.org/2000/svg"><path d="m269.276 34.243c-9.309 0-17.969 2.738-25.234 7.436 2.775 7.546 4.218 16.238 4.218 25.992v12.864c39.648 9.098 67.44 32.772 67.44 77.36v-77.41c-.001-25.539-20.786-46.242-46.424-46.242z" fill="#3d5959"/><path d="m204.791 76.059c15.429 0 30.119 1.413 43.468 4.476v-12.864c0-38.154-21.942-60.171-60.248-60.171h-24.77c-38.306 0-69.357 30.931-69.357 69.085v81.31c0-59.6 49.653-81.836 110.907-81.836z" fill="#537982"/><path d="m124.999 95.54v-18.955c0-37.187 29.501-67.498 66.462-69.012-1.136-.044-2.281-.073-3.45-.073h-24.77c-38.306 0-69.357 30.931-69.357 69.085v81.31c0-29.115 11.853-49.309 31.115-62.355z" fill="#3d5959"/><path d="m277.363 410.272c0-24.016 9.023-45.928 23.873-62.569h-44.376c-2.837 25.74-25.063 45.78-52.068 45.78-27.007 0-49.231-20.04-52.069-45.78h-74.483c-27.069 0-49.095 21.486-49.095 47.895v70.802c0 3.513 2.892 6.362 6.459 6.362h265.562c-14.806-16.633-23.803-38.514-23.803-62.49z" fill="#0592fb"/><path d="m70.999 466.398v-70.802c0-26.408 22.025-47.895 49.095-47.895h-41.854c-27.069 0-49.095 21.486-49.095 47.895v70.802c0 3.513 2.892 6.362 6.459 6.362h41.854c-3.567.001-6.459-2.849-6.459-6.362z" fill="#0181fb"/><path d="m235.777 315.465c-5.856 1.066-11.893 1.63-18.066 1.63h-25.841c-6.172 0-12.209-.564-18.065-1.63v32.237h-21.083c2.838 25.74 25.063 45.78 52.069 45.78s49.231-20.04 52.068-45.78h-21.082z" fill="#ffcdbe"/><path d="m191.87 317.095c-6.172 0-12.209-.564-18.065-1.63v32.237h-21.083c1.307 11.849 6.729 22.483 14.826 30.518h22.178c5.523 0 10-4.477 10-10v-51.125z" fill="#ffaf9d"/><g fill="#ffcdbe"><path d="m93.884 221.376v-28.906-20.316h-15.116c-11.255 0-20.383 8.822-20.383 19.704v23.854c0 10.883 9.128 19.704 20.383 19.704h16.168c-.69-4.584-1.052-9.271-1.052-14.04z"/><path d="m330.819 172.153h-15.119v49.223c0 4.769-.363 9.456-1.053 14.039h16.172c11.258 0 20.379-8.821 20.379-19.704v-23.854c-.001-10.881-9.122-19.704-20.379-19.704z"/><path d="m204.791 76.059c-61.254 0-110.907 22.236-110.907 81.836v63.482c0 52.862 43.87 95.719 97.986 95.719h25.841c54.119 0 97.988-42.856 97.988-95.719v-63.482c0-59.6-49.654-81.836-110.908-81.836z"/></g><path d="m124.999 221.376v-63.482c0-54.461 41.463-77.72 95.35-81.326-5.084-.34-10.276-.51-15.558-.51-61.254 0-110.907 22.236-110.907 81.836v63.482c0 52.862 43.87 95.719 97.986 95.719h25.841c.882 0 1.761-.013 2.638-.035-52.898-1.366-95.35-43.683-95.35-95.684z" fill="#ffaf9d"/><path d="m385.438 453.846c-3.4 3.716-8.24 5.847-13.277 5.847h-.039c-5.051-.01-9.891-2.16-13.285-5.899l-49.586-54.605c-.535-.589-.815-1.366-.775-2.161.039-.794.391-1.542.98-2.077l22.209-20.168c.574-.522 1.297-.779 2.016-.779.816 0 1.631.331 2.223.983l34.838 38.364c.377.415.916.654 1.477.655.563 0 1.102-.237 1.478-.65l64.445-70.405c-17.061-16.643-40.416-26.908-66.18-26.908-52.244 0-94.598 42.188-94.598 94.228s42.354 94.228 94.598 94.228 94.598-42.189 94.598-94.228c0-13.075-2.676-25.527-7.508-36.846z" fill="#00c184"/><path d="m284.863 410.272c0 45.806 35.848 83.425 81.072 86.518-33.602-14.457-57.131-47.74-57.131-86.518 0-.137.006-.273.006-.41l-5.113-5.631c-1.887-2.077-2.852-4.766-2.715-7.571.139-2.801 1.357-5.38 3.434-7.263l9.01-8.182c8.4-25.832 27.682-46.777 52.477-57.457-45.211 3.108-81.04 40.72-81.04 86.514z" fill="#07b17b"/><path d="m372.121 459.693c-5.051-.01-9.891-2.16-13.285-5.899l-49.586-54.605c-.535-.589-.815-1.366-.775-2.161.039-.794.391-1.542.98-2.077l22.209-20.168c.574-.522 1.297-.779 2.016-.779.816 0 1.631.331 2.223.983l34.838 38.364c.377.415.916.654 1.477.655.563 0 1.102-.237 1.478-.65l81.816-89.383c.537-.587 1.285-.937 2.08-.972.045-.002.088-.003.133-.003.748 0 1.471.28 2.025.787l22.129 20.256c1.223 1.119 1.307 3.016.188 4.238l-96.629 105.565c-3.4 3.716-8.24 5.847-13.277 5.847h-.04z" fill="#fff"/><path d="m195.335 173.476c-4.142 0-7.5 3.358-7.5 7.5v31.029c0 7.496 6.167 13.594 13.746 13.594h13.4c4.143 0 7.5-3.358 7.5-7.5s-3.357-7.5-7.5-7.5h-12.146v-29.623c0-4.143-3.357-7.5-7.5-7.5z"/><path d="m137.879 167.231v22.03c0 4.142 3.358 7.5 7.5 7.5 4.143 0 7.5-3.358 7.5-7.5v-22.03c0-4.142-3.357-7.5-7.5-7.5-4.142 0-7.5 3.358-7.5 7.5z"/><path d="m256.702 167.231v22.03c0 4.142 3.358 7.5 7.501 7.5s7.5-3.358 7.5-7.5v-22.03c0-4.142-3.357-7.5-7.5-7.5s-7.501 3.358-7.501 7.5z"/><path d="m173.358 245.034c-1.721-3.768-6.171-5.425-9.939-3.706-3.768 1.721-5.427 6.17-3.706 9.939 8.028 17.575 25.723 28.932 45.078 28.932 19.356 0 37.051-11.356 45.077-28.932 1.721-3.768.062-8.217-3.706-9.938s-8.217-.061-9.938 3.707c-5.594 12.249-17.932 20.164-31.433 20.164-13.5-.002-25.839-7.916-31.433-20.166z"/><path d="m490.344 345.792c-.125-2.803-1.332-5.389-3.4-7.281l-22.133-20.258c-1.939-1.775-4.457-2.753-7.086-2.753-.156 0-.305.003-.465.01-2.801.124-5.389 1.331-7.281 3.4l-12.373 13.518c-17.762-14.895-40.666-23.885-65.645-23.885-29.068 0-55.338 12.167-73.949 31.658h-54.734v-18.664c12.883-3.132 25.074-8.633 36.045-16.368 3.385-2.387 4.193-7.066 1.807-10.451-2.385-3.384-7.064-4.195-10.451-1.808-15.48 10.915-33.795 16.684-52.967 16.684h-25.842c-49.895 0-90.486-39.575-90.486-88.219v-63.482c0-25.306 9.778-44.474 29.063-56.974 17.522-11.358 43.23-17.362 74.344-17.362s56.822 6.003 74.344 17.362c19.285 12.5 29.064 31.669 29.064 56.974v63.482c0 17.3-5.133 34.046-14.842 48.429-2.318 3.433-1.414 8.095 2.02 10.413 3.434 2.316 8.096 1.414 10.412-2.02 7.297-10.806 12.375-22.755 15.094-35.282h9.936c15.371 0 27.879-12.204 27.879-27.204v-23.854c0-15.001-12.508-27.204-27.879-27.204h-7.619v-84.168c0-29.633-24.191-53.742-53.924-53.742-7.709 0-15.041 1.627-21.678 4.546-10.65-20.039-31.314-31.289-59.587-31.289h-24.77c-42.379 0-76.857 34.356-76.857 76.585v88.068h-7.616c-15.374 0-27.883 12.204-27.883 27.204v23.854c0 15 12.509 27.204 27.883 27.204h9.934c8.385 38.494 38.764 69.111 77.604 78.608v18.679h-88.066c-31.206 0-56.595 24.85-56.595 55.395v70.802c0 7.644 6.262 13.862 13.959 13.862h51.395c4.143 0 7.5-3.358 7.5-7.5s-3.357-7.5-7.5-7.5h-50.353v-69.664c0-22.273 18.659-40.395 41.595-40.395h68.173c6.085 26.52 30.069 45.78 58.378 45.78 28.31 0 52.295-19.261 58.379-45.78h22.984c-10.303 15.883-16.291 34.792-16.291 55.069 0 20.243 5.967 39.123 16.238 54.989h-164.103c-4.142 0-7.5 3.358-7.5 7.5s3.358 7.5 7.5 7.5h175.936c18.618 19.538 44.917 31.74 74.026 31.74 56.297 0 102.098-45.635 102.098-101.728 0-12.38-2.236-24.247-6.322-35.229l19.861-21.697c1.894-2.069 2.869-4.752 2.746-7.554zm-167.145-124.416v-28.906-12.816h7.619c7.102 0 12.879 5.475 12.879 12.204v23.854c0 6.729-5.777 12.204-12.879 12.204h-7.842c.139-2.172.223-4.351.223-6.54zm-53.923-179.633c21.463 0 38.924 17.38 38.924 38.742v27.272c-5.482-7.456-12.449-13.944-20.904-19.425-9.035-5.855-19.576-10.414-31.536-13.677v-6.985c0-8.106-.934-15.581-2.73-22.379 4.947-2.273 10.447-3.548 16.246-3.548zm-167.892 34.842c0-33.958 27.749-61.585 61.857-61.585h24.77c34.016 0 52.748 18.706 52.748 52.671v3.692c-11.012-1.866-23.014-2.805-35.968-2.805-34.501 0-62.26 6.653-82.503 19.774-8.455 5.48-15.423 11.968-20.904 19.425zm-22.616 151.33c-7.104 0-12.883-5.475-12.883-12.204v-23.854c0-6.73 5.779-12.204 12.883-12.204h7.616v12.816 28.906c0 2.197.079 4.376.218 6.539h-7.834zm126.023 158.067c-20.015 0-37.149-12.757-42.858-30.78h11.872c4.143 0 7.5-3.358 7.5-7.5v-23.623c3.476.34 7 .516 10.565.516h25.841c3.552 0 7.074-.189 10.566-.528v23.636c0 4.142 3.358 7.5 7.5 7.5h11.872c-5.708 18.022-22.842 30.779-42.858 30.779zm175.113 62.801c-1.982 2.167-4.807 3.41-7.77 3.41-2.943-.006-5.766-1.26-7.746-3.441l-46.561-51.273 15.547-14.118 31.813 35.034c1.793 1.974 4.35 3.108 7.029 3.113 2.666 0 5.223-1.128 7.01-3.086l20.467-22.357c2.797-3.055 2.586-7.799-.469-10.596-3.055-2.796-7.799-2.588-10.596.468l-16.393 17.907-30.779-33.895c-1.986-2.189-4.82-3.444-7.777-3.444-2.615 0-5.123.968-7.059 2.727l-22.205 20.165c-2.076 1.883-3.295 4.462-3.434 7.263-.137 2.805.828 5.495 2.715 7.571l49.586 54.604c4.809 5.298 11.67 8.345 18.877 8.358 7.137 0 13.992-3.019 18.809-8.283l65.1-71.12c1.939 7.174 2.99 14.706 2.99 22.482 0 47.822-39.072 86.728-87.098 86.728s-87.098-38.906-87.098-86.728 39.072-86.728 87.098-86.728c21.08 0 40.422 7.509 55.504 19.965l-15.037 16.428c-2.797 3.056-2.588 7.8.469 10.596 3.053 2.796 7.797 2.587 10.596-.468l34.514-37.707 15.488 14.179z"/></svg>