<?xml version="1.0"?>
<svg xmlns="http://www.w3.org/2000/svg" xmlns:xlink="http://www.w3.org/1999/xlink" version="1.1" id="Layer_1" x="0px" y="0px" viewBox="0 0 512 512" style="enable-background:new 0 0 512 512;" xml:space="preserve" width="512px" height="512px" class="hovered-paths"><g><path style="fill:#FFFFFF;" d="M348.585,270.629c0,58.756-40.772,88.514-91.067,88.514s-91.067-29.758-91.067-88.514  s40.772-115.749,91.067-115.749S348.585,211.874,348.585,270.629z" data-original="#FFFFFF" class=""/><g>
	<circle style="fill:#C42421" cx="109.281" cy="312.533" r="22.767" data-original="#78909C" class="" data-old_color="#78909C"/>
	<circle style="fill:#C42421" cx="407.779" cy="312.533" r="22.767" data-original="#78909C" class="" data-old_color="#78909C"/>
</g><g>
	<path style="fill:#FFFFFF;" d="M504.411,252.964v17.576H348.585c-0.01-17.606-3.683-35.041-10.169-50.836l23.151,4.644   L504.411,252.964z" data-original="#FFFFFF" class=""/>
	<path style="fill:#FFFFFF;" d="M176.772,219.34c-6.577,15.896-10.311,33.462-10.321,51.2H9.613v-17.576l143.957-28.959   L176.772,219.34z" data-original="#FFFFFF" class=""/>
</g><g>
	<path style="fill:#E0E0E0;" d="M257.518,323.794c-45.102,0-82.539-23.936-89.791-71.247c-0.835,5.968-1.276,12.015-1.276,18.082   c0,58.756,40.772,88.514,91.067,88.514s91.067-29.758,91.067-88.514c0-6.067-0.441-12.113-1.276-18.082   C340.057,299.859,302.619,323.794,257.518,323.794z" data-original="#E0E0E0" class=""/>
	<path style="fill:#E0E0E0;" d="M153.57,224.005l23.202-4.665c-6.577,15.896-10.311,33.462-10.321,51.2h-20.237   C146.224,254.867,148.784,239.051,153.57,224.005z" data-original="#E0E0E0" class=""/>
	<path style="fill:#E0E0E0;" d="M368.822,270.54h-20.237c-0.01-17.606-3.683-35.041-10.169-50.836l23.151,4.644   C366.293,239.294,368.812,254.988,368.822,270.54z" data-original="#E0E0E0" class=""/>
</g><path style="fill:#ED2A26" d="M203.183,235.049c-3.852,10.561-6.147,22.082-6.359,33.811c16.089,12.847,36.481,20.531,58.67,20.531  c24.038,0,45.966-9.018,62.599-23.848c-0.587-11.412-3.113-22.555-7.09-32.735c-15.562,11.391-34.744,18.132-55.508,18.132  C236.13,250.941,218.144,245.077,203.183,235.049z" data-original="#78B9EB" class="" data-old_color="#78B9EB"/><g>
	<path style="fill:#FFFFFF;" d="M276.743,157.85h-40.474l2.277-21.138l6.87-63.858c0.557-5.717,5.353-10.068,11.09-10.068   c2.874,0,5.504,1.083,7.488,2.894c1.983,1.801,3.319,4.321,3.602,7.174l6.83,63.423L276.743,157.85z" data-original="#FFFFFF" class=""/>
	<path style="fill:#FFFFFF;" d="M392.095,172.38c0,4.381-3.339,8.034-7.7,8.429l-41.952,3.815l-23.677,2.155   c-7.923-9.481-17.121-17.323-27.209-22.858h92.079c2.337,0,4.452,0.951,5.98,2.479C391.144,167.928,392.095,170.043,392.095,172.38   z" data-original="#FFFFFF" class=""/>
	<path style="fill:#FFFFFF;" d="M223.479,163.921c-9.967,5.464-19.063,13.184-26.915,22.514l-23.738-2.155l-38.137-3.471   c-2.175-0.192-4.108-1.204-5.484-2.722c-1.386-1.508-2.216-3.521-2.216-5.707c0-4.675,3.784-8.459,8.459-8.459H223.479z" data-original="#FFFFFF" class=""/>
</g><g>
	<path style="fill:#E0E0E0;" d="M189.875,163.921h33.604c-9.967,5.464-19.063,13.184-26.915,22.514l-23.738-2.155   c1.346-1.983,2.752-3.936,4.209-5.838C181.082,173.149,185.372,168.302,189.875,163.921z" data-original="#E0E0E0" class=""/>
	<path style="fill:#E0E0E0;" d="M274.426,136.277l2.317,21.573h-40.474l2.277-21.138c6.213-1.366,12.547-2.064,18.972-2.064   C263.235,134.648,268.881,135.194,274.426,136.277z" data-original="#E0E0E0" class=""/>
	<path style="fill:#E0E0E0;" d="M342.443,184.624l-23.677,2.155c-7.923-9.481-17.121-17.323-27.209-22.858h33.604   c4.503,4.381,8.793,9.228,12.84,14.52C339.539,180.455,341.026,182.519,342.443,184.624z" data-original="#E0E0E0" class=""/>
</g><g>
	<path style="fill:#FFFFFF;" d="M101.391,25.674L101.391,25.674c0-8.936-7.244-16.179-16.179-16.179H7.589v43.144h45.266   c8.936,0,16.179,7.244,16.179,16.179l0,0c0,8.935,7.243,16.179,16.179,16.179h82.25c11.914,0,21.572-9.658,21.572-21.572l0,0   c0-11.914-9.658-21.572-21.572-21.572H117.57C108.634,41.852,101.391,34.61,101.391,25.674z" data-original="#FFFFFF" class=""/>
	<path style="fill:#FFFFFF;" d="M503.399,503.905H371.88c-8.936,0-16.179-7.244-16.179-16.179l0,0   c0-8.936-7.244-16.179-16.179-16.179h-75.501c-11.914,0-21.572-9.658-21.572-21.572l0,0c0-11.914,9.658-21.572,21.572-21.572   H371.88c8.936,0,16.179,7.244,16.179,16.179l0,0c0,8.936,7.244,16.179,16.179,16.179h99.162V503.905z" data-original="#FFFFFF" class=""/>
	<path style="fill:#FFFFFF;" d="M399.178,58.688h77.913c13.971,0,25.296-11.326,25.296-25.296l0,0   c0-13.971-11.326-25.296-25.296-25.296h-77.913c-13.971,0-25.296,11.326-25.296,25.296l0,0   C373.881,47.362,385.207,58.688,399.178,58.688z" data-original="#FFFFFF" class=""/>
	<path style="fill:#FFFFFF;" d="M29.85,471.526h39.462c12.294,0,22.261-9.967,22.261-22.261l0,0   c0-12.294-9.967-22.261-22.261-22.261H29.85c-12.294,0-22.261,9.967-22.261,22.261l0,0C7.589,461.559,17.556,471.526,29.85,471.526   z" data-original="#FFFFFF" class=""/>
</g><path d="M343.811,213.048c-3.1-6.978-6.746-13.665-10.897-19.937l52.172-4.743c8.322-0.757,14.597-7.629,14.597-15.985  c0-8.851-7.2-16.051-16.051-16.051h-90.049c-3.221-1.676-6.503-3.128-9.838-4.346l-8.598-79.86  c-0.928-9.654-8.942-16.934-18.64-16.934c-9.699,0-17.713,7.28-18.632,16.848l-8.693,80.752c-2.612,1.037-5.189,2.217-7.729,3.538  h-86.002c-8.851,0-16.051,7.2-16.051,16.051c0,8.356,6.276,15.228,14.597,15.985l48.355,4.395  c-4.175,6.263-7.846,12.947-10.97,19.922L2.024,246.75v31.377h99.162v5.152c-12.819,3.553-22.261,15.316-22.261,29.251  c0,16.738,13.618,30.356,30.356,30.356s30.356-13.618,30.356-30.356c0-14.299-9.941-26.312-23.273-29.513v-4.89h42.721  c1.559,26.591,11.492,48.76,28.972,64.442c17.622,15.808,41.641,24.163,69.462,24.163s51.841-8.356,69.462-24.163  c17.48-15.681,27.412-37.852,28.971-64.442h43.732v5.152c-12.819,3.553-22.261,15.316-22.261,29.251  c0,16.738,13.618,30.356,30.356,30.356c16.738,0,30.356-13.618,30.356-30.356c0-14.299-9.941-26.312-23.273-29.513v-4.89H512  v-31.382L343.811,213.048z M124.459,312.53c0,8.369-6.809,15.178-15.178,15.178S94.103,320.9,94.103,312.53  s6.809-15.178,15.178-15.178S124.459,304.161,124.459,312.53z M422.957,312.53c0,8.369-6.809,15.178-15.178,15.178  c-8.369,0-15.178-6.809-15.178-15.178s6.809-15.178,15.178-15.178C416.148,297.353,422.957,304.161,422.957,312.53z M383.633,171.51  c0.482,0,0.873,0.392,0.873,0.873c0,0.454-0.341,0.829-0.794,0.869l-61.752,5.614c-2.319-2.604-4.709-5.059-7.164-7.356H383.633z   M252.973,73.58c0.176-1.83,1.695-3.21,3.533-3.21c1.839,0,3.356,1.38,3.542,3.296l8.007,74.377  c-2.809-0.398-5.64-0.639-8.488-0.717c-0.23-0.006-0.458-0.007-0.688-0.011c-0.453-0.008-0.906-0.022-1.36-0.022  c-0.223,0-0.444,0.009-0.666,0.011c-0.279,0.003-0.559,0.008-0.838,0.014c-0.683,0.013-1.365,0.036-2.046,0.069  c-0.208,0.01-0.417,0.019-0.625,0.03c-2.826,0.157-5.635,0.471-8.42,0.944L252.973,73.58z M134.577,172.383  c0-0.482,0.392-0.873,0.873-0.873h64.789c-2.348,2.197-4.634,4.54-6.857,7.016l-58.011-5.274  C134.918,173.212,134.577,172.837,134.577,172.383z M17.202,259.179l147.904-29.749c-0.065,0.213-0.121,0.427-0.185,0.639  c-0.294,0.979-0.579,1.962-0.852,2.948c-0.069,0.248-0.141,0.495-0.208,0.744c-0.331,1.215-0.643,2.436-0.942,3.66  c-0.06,0.243-0.116,0.487-0.174,0.73c-0.275,1.154-0.537,2.31-0.784,3.47c-0.025,0.121-0.054,0.242-0.079,0.363  c-0.272,1.298-0.525,2.6-0.762,3.906c-0.03,0.165-0.058,0.33-0.087,0.496c-0.223,1.251-0.43,2.504-0.618,3.76  c-0.01,0.068-0.021,0.136-0.031,0.203c-0.197,1.327-0.374,2.656-0.533,3.987c-0.019,0.157-0.035,0.313-0.054,0.47  c-0.143,1.227-0.27,2.456-0.38,3.685c-0.01,0.115-0.022,0.231-0.032,0.346c-0.113,1.296-0.206,2.593-0.282,3.892  c-0.004,0.075-0.012,0.149-0.016,0.224H17.202V259.179z M257.518,351.555c-40.339,0-83.44-21.241-83.477-80.848v-0.122  c0.001-1.465,0.038-2.931,0.093-4.399c0.013-0.359,0.025-0.718,0.043-1.078c0.064-1.38,0.15-2.759,0.26-4.138  c0.034-0.427,0.076-0.855,0.114-1.282c0.099-1.099,0.215-2.197,0.343-3.294c0.065-0.549,0.13-1.099,0.201-1.648  c0.145-1.109,0.308-2.217,0.483-3.323c0.097-0.617,0.197-1.234,0.304-1.851c0.202-1.17,0.417-2.336,0.652-3.5  c0.136-0.672,0.284-1.341,0.431-2.011c0.155-0.707,0.316-1.413,0.482-2.117c0.233-0.987,0.478-1.97,0.734-2.952  c0.205-0.789,0.415-1.576,0.635-2.361c0.206-0.734,0.42-1.465,0.639-2.195c0.205-0.683,0.42-1.362,0.636-2.041  c0.346-1.088,0.706-2.17,1.082-3.248c0.212-0.61,0.428-1.22,0.65-1.826c0.262-0.719,0.525-1.439,0.8-2.152  c0.411-1.068,0.836-2.128,1.275-3.182l0.431-1.041c3.928-9.198,8.907-17.858,14.829-25.617c0.909-1.19,1.833-2.346,2.77-3.476  l0.443-0.526c7.439-8.836,15.769-15.816,24.76-20.749l2.027-1.112c3.192-1.616,6.447-2.961,9.749-4.023h0.035l1.079-0.328  c11.385-3.46,23.159-3.506,34.554-0.133l1.558,0.461c3.302,1.063,6.556,2.407,9.747,4.023l2.027,1.112  c9.109,4.998,17.531,12.086,25.032,21.068L313,191.72c0.974,1.172,1.936,2.374,2.881,3.611c5.962,7.812,10.973,16.536,14.913,25.803  l0.214,0.519c0.438,1.043,0.854,2.099,1.265,3.155c0.322,0.828,0.633,1.658,0.938,2.493c0.253,0.693,0.501,1.388,0.742,2.086  c0.265,0.768,0.527,1.536,0.778,2.309c0.315,0.969,0.618,1.944,0.911,2.921c0.205,0.687,0.403,1.376,0.597,2.066  c0.221,0.787,0.431,1.576,0.637,2.368c0.249,0.954,0.486,1.91,0.712,2.87c0.177,0.75,0.349,1.501,0.512,2.253  c0.143,0.655,0.286,1.309,0.418,1.966c0.235,1.167,0.451,2.336,0.653,3.508c0.104,0.604,0.2,1.208,0.295,1.812  c0.166,1.052,0.32,2.107,0.459,3.163c0.076,0.574,0.147,1.148,0.215,1.722c0.132,1.118,0.249,2.238,0.349,3.358  c0.039,0.431,0.08,0.862,0.115,1.292c0.109,1.376,0.196,2.753,0.259,4.13c0.016,0.353,0.028,0.705,0.041,1.058  c0.055,1.468,0.092,2.936,0.093,4.403v0.122C340.958,330.313,297.857,351.555,257.518,351.555z M496.822,262.949h-140.87  c-0.004-0.075-0.012-0.151-0.016-0.226c-0.076-1.288-0.168-2.575-0.28-3.862c-0.009-0.101-0.019-0.201-0.028-0.303  c-0.109-1.223-0.236-2.446-0.377-3.666c-0.019-0.162-0.036-0.324-0.056-0.487c-0.158-1.328-0.333-2.653-0.529-3.977  c-0.002-0.012-0.004-0.023-0.005-0.035c-0.19-1.278-0.401-2.554-0.625-3.828c-0.032-0.182-0.064-0.363-0.096-0.545  c-0.235-1.301-0.484-2.599-0.754-3.894c-0.009-0.041-0.018-0.083-0.027-0.124c-0.252-1.198-0.522-2.392-0.803-3.584  c-0.066-0.276-0.131-0.553-0.197-0.83c-0.294-1.212-0.599-2.421-0.925-3.624c-0.05-0.182-0.103-0.363-0.153-0.545  c-0.276-1.008-0.566-2.013-0.864-3.014c-0.063-0.21-0.117-0.422-0.181-0.632l146.788,29.411V262.949z" data-original="#000000" class="active-path" style="fill:#333333" data-old_color="#000000"/><path d="M325.671,265.153c-0.614-11.958-3.172-23.771-7.6-35.106l-3.59-9.19l-7.961,5.827  c-14.896,10.904-32.54,16.667-51.026,16.667c-17.201,0-33.828-5.051-48.086-14.606l-8.039-5.388l-3.316,9.092  c-4.302,11.796-6.596,24.001-6.817,36.275l-0.067,3.735l2.92,2.331c18.179,14.517,40.104,22.19,63.404,22.19  c24.985,0,49.01-9.153,67.649-25.773l2.716-2.421L325.671,265.153z M255.494,281.802c-18.556,0-36.086-5.719-50.934-16.579  c0.372-6.224,1.384-12.539,2.989-18.702c14.7,7.883,31.088,12.01,47.945,12.01c18.301,0,35.903-4.806,51.464-13.981  c1.654,5.817,2.756,11.741,3.296,17.713C294.827,274.888,275.523,281.802,255.494,281.802z" data-original="#000000" class="active-path" style="fill:#333333" data-old_color="#000000"/><path d="M61.445,68.817c0,13.106,10.662,23.768,23.768,23.768h82.25c16.079,0,29.161-13.081,29.161-29.161  s-13.081-29.161-29.161-29.161H117.57c-4.737,0-8.59-3.853-8.59-8.59c0-13.106-10.662-23.768-23.768-23.768H7.589v15.178h77.624  c4.737,0,8.59,3.853,8.59,8.59c0,13.106,10.662,23.768,23.768,23.768h49.893c7.71,0,13.983,6.273,13.983,13.983  s-6.273,13.983-13.983,13.983h-82.25c-4.737,0-8.59-3.853-8.59-8.59c0-13.106-10.662-23.768-23.768-23.768H7.589v15.178h45.265  C57.592,60.228,61.445,64.081,61.445,68.817z" data-original="#000000" class="active-path" style="fill:#333333" data-old_color="#000000"/><path d="M395.647,444.583c0-13.106-10.662-23.768-23.768-23.768H264.022c-16.079,0-29.161,13.081-29.161,29.161  c0,16.079,13.081,29.161,29.161,29.161h75.501c4.737,0,8.59,3.853,8.59,8.59c0,13.106,10.662,23.768,23.768,23.768h131.519v-15.178  H371.88c-4.736,0-8.59-3.853-8.59-8.59c0-13.106-10.662-23.768-23.768-23.768h-75.501c-7.71,0-13.983-6.273-13.983-13.983  c0-7.71,6.273-13.982,13.983-13.982H371.88c4.737,0,8.59,3.853,8.59,8.59c0,13.106,10.662,23.768,23.768,23.768h99.162v-15.178  h-99.162C399.501,453.173,395.647,449.319,395.647,444.583z" data-original="#000000" class="active-path" style="fill:#333333" data-old_color="#000000"/><path d="M399.178,66.277h77.913c18.132,0,32.885-14.753,32.885-32.885S495.223,0.506,477.091,0.506h-77.913  c-18.133,0-32.885,14.753-32.885,32.885S381.045,66.277,399.178,66.277z M399.178,15.684h77.913c9.763,0,17.707,7.944,17.707,17.708  s-7.944,17.708-17.707,17.708h-77.913c-9.763,0-17.708-7.944-17.708-17.708S389.414,15.684,399.178,15.684z" data-original="#000000" class="active-path" style="fill:#333333" data-old_color="#000000"/><path d="M69.312,419.415H29.85c-16.459,0-29.85,13.391-29.85,29.85c0,16.459,13.391,29.85,29.85,29.85h39.462  c16.459,0,29.85-13.391,29.85-29.85C99.162,432.806,85.771,419.415,69.312,419.415z M69.312,463.937H29.85  c-8.09,0-14.672-6.582-14.672-14.672c0-8.09,6.582-14.672,14.672-14.672h39.462c8.09,0,14.672,6.582,14.672,14.672  C83.984,457.355,77.402,463.937,69.312,463.937z" data-original="#000000" class="active-path" style="fill:#333333" data-old_color="#000000"/></g> </svg>
