<?xml version="1.0"?>
<svg xmlns="http://www.w3.org/2000/svg" xmlns:xlink="http://www.w3.org/1999/xlink" version="1.1" id="Layer_1" x="0px" y="0px" viewBox="0 0 512 512" style="enable-background:new 0 0 512 512;" xml:space="preserve" width="512px" height="512px" class="hovered-paths"><g><path style="fill:#ED2A26" d="M268.854,504.401h-24.273c-11.192,0-20.264-9.072-20.264-20.264v-28.204h64.801v28.204  C289.118,495.329,280.046,504.401,268.854,504.401z" data-original="#A0815C" class="" data-old_color="#A0815C"/><path style="fill:#ED2A26" d="M223.528,407.465h72.703c62.461-61.379,133.289-170.94,133.289-242.343  c0-93.69-75.951-157.523-169.64-157.523S90.239,71.432,90.239,165.122C90.239,236.525,161.066,346.086,223.528,407.465z" data-original="#06CC93" class="" data-old_color="#06CC93"/><path style="fill:#FFFFFF;" d="M236.51,407.465h46.738c40.154-61.379,85.686-170.94,85.686-242.343  c0-93.69-48.826-157.523-109.054-157.523S150.825,71.432,150.825,165.122C150.825,236.525,196.357,346.086,236.51,407.465z" data-original="#FFFFFF" class=""/><path style="fill:#ED2A26" d="M246.253,407.465h20.772c17.846-61.379,38.083-170.94,38.083-242.343  c0-93.689-21.701-157.523-48.468-157.523c-26.769,0-48.468,63.833-48.468,157.523C208.171,236.525,228.406,346.086,246.253,407.465z  " data-original="#06CC93" class="" data-old_color="#06CC93"/><path style="fill:#C42421" d="M267.517,482.801h-21.6c-11.929,0-21.6-9.671-21.6-21.6v21.6c0,11.929,9.671,21.6,21.6,21.6h21.6  c11.929,0,21.6-9.671,21.6-21.6v-21.6C289.118,473.131,279.448,482.801,267.517,482.801z" data-original="#806749" class="" data-old_color="#806749"/><g>
	<path style="fill:#C42421" d="M137.652,297.144c24.909,41.462,56.325,81.282,85.874,110.319h12.983   c-13.654-20.872-27.929-47.318-40.825-75.938C174.492,323.746,154.914,312.027,137.652,297.144z" data-original="#00A371" class="" data-old_color="#00A371"/>
	<path style="fill:#C42421" d="M325.423,328.506c-13.245,29.778-28.043,57.354-42.176,78.958h12.983   c32.723-32.157,67.737-77.539,93.666-123.729C371.435,303.036,349.577,318.364,325.423,328.506z" data-original="#00A371" class="" data-old_color="#00A371"/>
</g><g>
	<path style="fill:#E0E0E0;" d="M195.685,331.527c12.896,28.62,27.171,55.066,40.825,75.938h12.983   c-5.405-18.59-11.029-41.604-16.244-66.636C220.292,339.097,207.729,335.949,195.685,331.527z" data-original="#E0E0E0" class=""/>
	<path style="fill:#E0E0E0;" d="M286.714,339.84c-5.273,25.414-10.973,48.789-16.449,67.625h12.983   c14.133-21.604,28.931-49.18,42.176-78.958C313.07,333.694,300.121,337.532,286.714,339.84z" data-original="#E0E0E0" class=""/>
</g><path style="fill:#C42421" d="M256.718,342.401c-7.944,0-15.774-0.542-23.469-1.571c5.215,25.031,10.839,48.045,16.244,66.636  h20.772c5.476-18.835,11.177-42.211,16.449-67.625C276.937,341.522,266.92,342.401,256.718,342.401z" data-original="#00A371" class="" data-old_color="#00A371"/><g>
	<path style="fill:#FFFFFF;" d="M114.717,199.492c-0.983-5.196-1.77-10.304-2.341-15.186l15.095-1.765   c0.529,4.528,1.262,9.282,2.178,14.127L114.717,199.492z M111.236,168.448c-0.025-1.118-0.039-2.226-0.039-3.327   c0-16.571,1.878-32.676,5.585-47.872l14.764,3.601c-3.418,14.018-5.151,28.912-5.151,44.271c0,0.983,0.011,1.974,0.034,2.972   L111.236,168.448z" data-original="#FFFFFF" class=""/>
	<path style="fill:#FFFFFF;" d="M97.798,358.6L97.798,358.6c0-8.948-7.253-16.2-16.2-16.2h-48.6c-11.929,0-21.6,9.671-21.6,21.6l0,0   c0,11.929,9.671,21.6,21.6,21.6h16.2c8.948,0,16.2,7.253,16.2,16.2l0,0c0,8.948,7.253,16.2,16.2,16.2h48.6   c11.929,0,21.6-9.671,21.6-21.6l0,0c0-11.929-9.671-21.6-21.6-21.6h-16.2C105.052,374.8,97.798,367.548,97.798,358.6z" data-original="#FFFFFF" class=""/>
	<path style="fill:#FFFFFF;" d="M492.001,425.201c0-8.948-7.253-16.2-16.2-16.2h-108c-11.929,0-21.6,9.671-21.6,21.6   s9.671,21.6,21.6,21.6h75.6c8.947,0,16.2,7.253,16.2,16.2c0,8.947,7.252,16.2,16.2,16.2h32.4v-43.201   C499.254,441.401,492.001,434.148,492.001,425.201z" data-original="#FFFFFF" class=""/>
</g><path d="M384.919,45.583C352.308,16.189,307.901,0,259.879,0S167.45,16.189,134.838,45.583  c-33.661,30.338-52.199,72.792-52.199,119.54c0,71.702,68.926,182.281,135.561,247.763l2.217,2.178h7.1v33.27h-10.8v35.803  c0,15.364,12.5,27.863,27.863,27.863h24.273c15.363,0,27.863-12.499,27.863-27.863v-35.803h-10.801v-33.27h1.441h11.982l2.217-2.178  c66.636-65.482,135.561-176.062,135.561-247.763C437.118,118.374,418.581,75.921,384.919,45.583z M230.383,21.132  c-4.2,6.941-8.281,16.002-12.02,27.799c-9.384,29.601-14.551,70.866-14.551,116.191c0,65.873,17.094,165.724,34.752,231.452  c-40.121-64.034-80.14-165.52-80.14-231.452c0-42.999,10.842-81.88,30.53-109.483C200.57,39.351,214.756,27.635,230.383,21.132z   M219.009,165.122c0-43.809,4.916-83.443,13.841-111.599c7.494-23.64,17.851-38.325,27.029-38.325  c9.177,0,19.534,14.685,27.028,38.325c8.926,28.157,13.841,67.79,13.841,111.599c0,67.094-18.146,170.357-36.217,234.744h-9.306  C237.156,335.478,219.009,232.216,219.009,165.122z M315.946,165.122c0-45.325-5.168-86.59-14.551-116.191  c-3.739-11.797-7.821-20.858-12.02-27.799c15.626,6.503,29.814,18.219,41.431,34.507c19.686,27.602,30.529,66.484,30.529,109.483  c0,65.932-40.02,167.42-80.141,231.454C298.852,330.848,315.946,230.996,315.946,165.122z M140.033,286.239  c-27.21-46.912-42.195-89.925-42.195-121.118c0-63.309,38.227-115.077,95.59-137.672c-6.03,5.647-11.674,12.109-16.848,19.364  c-21.508,30.156-33.353,72.172-33.353,118.308c0,63.602,35.342,158.335,73.372,224.37  C188.721,359.819,161.362,323.011,140.033,286.239z M281.52,484.137c0,6.984-5.681,12.665-12.665,12.665h-24.273  c-6.984,0-12.665-5.681-12.665-12.665v-20.605h49.603V484.137z M242.717,448.334v-33.27h1.073h26.93v33.27H242.717z M303.162,389.49  c38.029-66.035,73.371-160.767,73.371-224.368c0-46.136-11.845-88.151-33.353-118.308c-5.175-7.255-10.82-13.719-16.849-19.365  c57.363,22.594,95.59,74.362,95.59,137.673c0,31.192-14.985,74.206-42.195,121.118C358.396,323.01,331.037,359.818,303.162,389.49z" data-original="#000000" class="hovered-path active-path" style="fill:#333333" data-old_color="#000000"/><path d="M130.199,367.202h-16.2c-4.743,0-8.601-3.858-8.601-8.601c0-13.123-10.676-23.799-23.799-23.799H32.998  c-16.101,0-29.198,13.099-29.198,29.199S16.898,393.2,32.998,393.2h16.2c4.743,0,8.601,3.858,8.601,8.601  c0,13.123,10.676,23.799,23.799,23.799h48.601c16.101,0,29.198-13.099,29.198-29.199S146.3,367.202,130.199,367.202z   M130.199,410.402H81.599c-4.743,0-8.601-3.858-8.601-8.601c0-13.123-10.676-23.799-23.799-23.799H32.998  c-7.72,0-14-6.281-14-14.001c0-7.721,6.281-14.001,14-14.001h48.601c4.743,0,8.601,3.858,8.601,8.601  c0,13.123,10.676,23.799,23.799,23.799h16.2c7.72,0,14,6.281,14,14.001S137.919,410.402,130.199,410.402z" data-original="#000000" class="hovered-path active-path" style="fill:#333333" data-old_color="#000000"/><path d="M367.8,416.6h108.001c4.743,0,8.6,3.858,8.6,8.601c0,13.123,10.676,23.799,23.799,23.799v-15.198  c-4.743,0-8.601-3.858-8.601-8.601c0-13.123-10.676-23.799-23.798-23.799H367.8c-16.101,0-29.198,13.099-29.198,29.199  S351.701,459.8,367.8,459.8h75.6c4.743,0,8.601,3.858,8.601,8.601c0,13.123,10.676,23.799,23.799,23.799h32.4v-15.198h-32.4  c-4.743,0-8.601-3.858-8.601-8.601c0-13.123-10.676-23.799-23.799-23.799h-75.6c-7.72,0-14-6.281-14-14.001  S360.081,416.6,367.8,416.6z" data-original="#000000" class="hovered-path active-path" style="fill:#333333" data-old_color="#000000"/></g> </svg>
