<svg xmlns="http://www.w3.org/2000/svg" width="296.25" height="190" viewBox="0 0 296.25 190"><path fill="#01798a" d="M281.2525.4775l-72.765-.0188h-.0188c-.0562 0-.1112.01-.1662.01-9.9962.3063-22.4463 8.3238-24.7138 18.21L149.1775 170.941c-2.2675 9.9784 3.9012 18.098 13.825 18.2475h76.4425c9.7725-.4834 19.2687-8.4087 21.4975-18.1826L295.355 18.742C297.6588 8.662 291.3412.477 281.2525.477"/><path fill="#024381" d="M149.1775 170.941l34.4113-152.2623C185.8563 8.7925 198.3063.775 208.3025.4687L179.3713.45l-52.125-.01c-10.0242.205-22.6364 8.2787-24.903 18.2387L67.922 170.941c-2.276 9.9784 3.9018 18.098 13.8192 18.2475h81.2613c-9.9238-.1494-16.0925-8.269-13.825-18.2476"/><path fill="#dd0228" d="M67.922 170.941l34.421-152.2623C104.61 8.7187 117.2222.645 127.2462.44L60.4707.4225c-10.08 0-23.004 8.1663-25.3076 18.2563L.742 170.9408c-.2095.9293-.3257 1.84-.395 2.731v2.8248c.6738 7.274 6.229 12.5708 14.2143 12.692h67.1803c-9.9174-.1495-16.0952-8.2692-13.8193-18.2477"/><path fill="#fff" d="M128.6537 111.388h1.2638c1.1613 0 1.9425-.3895 2.3087-1.161l3.2838-4.9145h8.7937l-1.8337 3.2324h10.5437l-1.3374 4.952H139.13c-1.445 2.174-3.2238 3.196-5.3625 3.075h-6.535l1.4212-5.184m-1.4437 7.098h23.1l-1.4725 5.38h-9.29l-1.4175 5.193h9.04l-1.4725 5.379h-9.04l-2.1 7.673c-.52 1.282.1637 1.859 2.04 1.728h7.3675l-1.365 4.999h-14.145c-2.6813 0-3.601-1.534-2.76-4.608l2.685-9.793h-5.7785l1.468-5.38h5.7792l1.4163-5.193h-5.5238l1.4688-5.38zm36.87-13.211l-.3638 3.149s4.3575-3.272 8.315-3.272h14.6238l-5.5925 20.244c-.4638 2.314-2.4525 3.465-5.965 3.465h-16.575l-3.8825 14.215c-.2238.7612.0925 1.152.9287 1.152h3.2613l-1.1988 4.4122H149.34c-3.1825 0-4.5063-.957-3.9813-2.879l10.9713-40.488h7.75zm12.3837 5.722h-13.0525l-1.5612 5.463s2.1737-1.57 5.8062-1.626c3.6225-.057 7.7575 0 7.7575 0l1.05-3.837zm-4.7287 12.672c.965.13 1.505-.251 1.57-1.153l.7987-2.88h-13.0725l-1.0962 4.0317h11.8zm-8.8175 6.54h7.535l-.14 3.26h2.0062c1.0138 0 1.5163-.3246 1.5163-.965l.5937-2.1096h6.2625l-.8362 3.0745c-.7075 2.565-2.5825 3.9027-5.63 4.0336h-4.0138l-.0187 5.5736c-.0738.8925.7337 1.3475 2.3962 1.3475h3.7726l-1.2176 4.4132h-9.0487c-2.5363.1204-3.78-1.088-3.7538-3.6516l.5763-14.977m-91.307-51.906c-1.022 5.0077-3.391 8.854-7.066 11.5853-3.6416 2.6854-8.3385 4.032-14.089 4.032-5.4115 0-9.379-1.375-11.9106-4.134-1.756-1.9607-2.63-4.4504-2.63-7.4607 0-1.2445.149-2.5824.446-4.0222l6.126-29.543h9.253l-6.042 29.21c-.186.8084-.26 1.561-.2508 2.2392-.01 1.496.3615 2.722 1.114 3.6785 1.0962 1.422 2.8755 2.1275 5.3515 2.1275 2.847 0 5.1933-.6963 7.014-2.0997 1.8213-1.394 3.0103-3.372 3.5444-5.946l6.0627-29.209h9.2067L71.61 78.305m38.8617-11.623h7.2472l-5.677 26.367h-7.233l5.662-26.367m2.281-9.606h7.311l-1.366 6.4h-7.311l1.365-6.4m11.3804 33.966c-1.8955-1.8116-2.8525-4.255-2.8617-7.358 0-.5298.0322-1.1333.1025-1.7935.07-.669.158-1.3193.283-1.9228.8594-4.2828 2.69-7.6832 5.5093-10.192 2.815-2.5176 6.211-3.7812 10.1873-3.7812 3.256 0 5.8384.9107 7.73 2.7315 1.89 1.8308 2.8372 4.3016 2.8372 7.4427 0 .538-.0416 1.1606-.1116 1.8295-.083.6783-.185 1.3287-.302 1.9698-.84 4.2178-2.665 7.5812-5.485 10.0436-2.82 2.4805-6.2064 3.7152-10.155 3.7152-3.27 0-5.844-.8915-7.7347-2.6845m13.811-5.2212c1.2774-1.384 2.1924-3.484 2.75-6.28.0836-.436.1574-.892.2036-1.347.046-.446.065-.864.065-1.245 0-1.626-.414-2.889-1.245-3.781-.8262-.901-2.0012-1.346-3.52-1.346-2.0074 0-3.6425.705-4.924 2.118-1.2922 1.413-2.2072 3.55-2.7835 6.392-.0787.437-.1437.874-.2037 1.301-.0464.437-.06.845-.051 1.217 0 1.617.414 2.862 1.245 3.744.826.883 1.996 1.319 3.535 1.319 2.016 0 3.651-.696 4.929-2.09"/><path fill="#e02f41" d="M208.4688.4588L179.371.45l28.9313.0187c.055 0 .11-.01.1662-.01"/><path fill="#2e4f7d" d="M179.3712.45l-51.725-.0275c-.13 0-.265.0087-.4.0175l52.125.01"/><path fill="#fff" d="M194.9425 111.6114l1.7475-6.15h8.835l-.3812 2.2568s4.515-2.2568 7.7662-2.2568h10.925l-1.7362 6.15H220.38l-8.2413 29.0053h1.7188l-1.635 5.7603h-1.7187l-.715 2.499h-8.5563l.7138-2.499h-16.88l1.645-5.7603h1.6912l8.2488-29.0053h-1.7088m9.5325 0l-2.2487 7.85s3.8475-1.4765 7.1637-1.8945c.7325-2.742 1.69-5.956 1.69-5.956h-6.605zm-3.29 11.5297l-2.2562 8.223s4.2637-2.099 7.19-2.276c.845-3.178 1.6912-5.946 1.6912-5.946h-6.625zm1.6538 17.476l1.6912-5.964h-6.595l-1.7 5.965h6.6038zm21.3687-35.536h8.3062l.3526 3.065c-.055.781.4087 1.153 1.3937 1.153h1.4675l-1.485 5.193h-6.105c-2.3312.121-3.53-.77-3.6412-2.694l-.2888-6.716zm-2.4337 11.139h26.905l-1.5788 5.575h-8.5662l-1.4688 5.183h8.5575l-1.5887 5.566h-9.5313l-2.1562 3.262h4.665l1.0775 6.531c.1287.651.705.966 1.69.966h1.4487l-1.5225 5.379h-5.1287c-2.6575.131-4.0313-.761-4.1438-2.684l-1.2362-5.964-4.245 6.346c-1.0038 1.793-2.5463 2.629-4.6263 2.499h-7.8325l1.5238-5.38h2.4437c1.0038 0 1.8388-.446 2.5913-1.347l6.6437-9.6062h-8.5662l1.5875-5.5655h9.2912l1.4775-5.183h-9.3l1.5888-5.5745M80.1342 66.673H86.67l-.7476 3.809.938-1.087c2.1186-2.2666 4.6918-3.391 7.73-3.391 2.75 0 4.7333.7993 5.9785 2.406 1.226 1.6076 1.56 3.8282.98 6.6804L97.948 93.058h-6.716l3.2514-16.286c.335-1.6816.2422-2.936-.2744-3.7446-.5103-.808-1.4864-1.207-2.8936-1.207-1.728 0-3.1822.538-4.3667 1.607-1.1895 1.0775-1.974 2.5736-2.3598 4.4778l-2.997 15.153h-6.73l5.272-26.3853m74.951 0h6.541l-.743 3.809.927-1.087c2.12-2.267 4.702-3.391 7.731-3.391 2.75 0 4.737.799 5.972 2.406 1.2184 1.607 1.571 3.828.976 6.68l-3.5865 17.968h-6.7265l3.2526-16.286c.3337-1.682.241-2.936-.27-3.745-.53-.808-1.4875-1.207-2.889-1.207-1.7285 0-3.1773.538-4.376 1.607-1.19 1.077-1.979 2.573-2.35 4.478l-3.01 15.153h-6.7226l5.2713-26.386m32.333-16.352h18.99c3.651 0 6.475.827 8.416 2.452 1.9324 1.645 2.9 4.005 2.9 7.08v.092c0 .585-.0388 1.245-.0938 1.96-.094.7063-.215 1.4213-.3714 2.165-.836 4.0694-2.7784 7.34-5.7784 9.8204-3.0115 2.471-6.5777 3.7164-10.684 3.7164H190.61l-3.1488 15.45h-8.8176l8.7713-42.737m4.746 19.854h8.446c2.201 0 3.947-.5113 5.221-1.5234 1.264-1.022 2.1-2.5824 2.564-4.7006.073-.391.12-.7436.176-1.0686.029-.306.065-.6137.065-.91 0-1.515-.538-2.611-1.616-3.2987-1.078-.6978-2.768-1.031-5.11-1.031h-7.173l-2.574 12.533m65.025 27.9834c-2.788 5.927-5.444 9.3827-7.004 10.99-1.563 1.5895-4.655 5.287-12.1068 5.008l.641-4.524c6.27-1.9325 9.6612-10.6386 11.5937-14.4936l-2.303-28.392 4.85-.065h4.069l.4374 17.8103 7.6266-17.81h7.7214l-15.525 31.477m-21.59-29.3317l-3.0675 2.11c-3.205-2.508-6.1317-4.06-11.779-1.4406-7.694 3.568-14.1228 30.929 7.06 21.917l1.2072 1.431 8.3334.214 5.4722-24.8617-7.228.632m-4.738 13.592c-1.3387 3.9488-4.3288 6.559-6.67 5.816-2.341-.7245-3.1775-4.5342-1.8213-8.492 1.3378-3.958 4.3477-6.559 6.67-5.816 2.3415.725 3.1865 4.534 1.8215 8.492"/></svg>
