<svg id="SvgjsSvg1001" width="288" height="288" xmlns="http://www.w3.org/2000/svg" version="1.1" xmlns:xlink="http://www.w3.org/1999/xlink" xmlns:svgjs="http://svgjs.com/svgjs"><defs id="SvgjsDefs1002"></defs><g id="SvgjsG1008" transform="matrix(0.9167,0,0,0.9167,11.995200000000011,11.995245758056654)"><svg xmlns="http://www.w3.org/2000/svg" width="288" height="288" viewBox="0 0 32 32"><g transform="translate(0 -1020.362)" fill="#000000" class="color000 svgShape"><circle cx="16" cy="1036.362" r="16" fill="#ed2a26" class="color1d67b1 svgShape"></circle><path fill="#cc2622" style="line-height:normal;text-indent:0;text-align:start;text-decoration-line:none;text-decoration-style:solid;text-decoration-color:#000;text-transform:none;block-progression:tb;isolation:auto;mix-blend-mode:normal" d="M 21.169922 31.119141 A 16 16 0 0 0 21.796875 30.912109 A 16 16 0 0 0 23.257812 30.259766 A 16 16 0 0 0 24.644531 29.462891 A 16 16 0 0 0 25.945312 28.533203 A 16 16 0 0 0 27.146484 27.478516 A 16 16 0 0 0 28.238281 26.306641 A 16 16 0 0 0 29.205078 25.035156 A 16 16 0 0 0 30.041016 23.669922 A 16 16 0 0 0 30.736328 22.230469 A 16 16 0 0 0 31.285156 20.728516 A 16 16 0 0 0 31.365234 20.414062 L 22.476562 11.525391 C 22.478963 11.535391 22.482075 11.537109 22.484375 11.537109 L 22.476562 11.529297 C 22.108736 11.166297 21.590427 11.016953 21.013672 11.001953 A 0.50005 0.50005 0 0 0 21 11.001953 L 16 11.001953 L 11.001953 11.001953 L 11 11.001953 L 11 11 C 10.416667 11 9.889343 11.153684 9.5214844 11.521484 C 9.1536258 11.889284 9 12.4169 9 13 L 9 18 C 9 18.144625 9.0092867 18.285752 9.0292969 18.421875 C 9.0473606 18.544855 9.0774956 18.661912 9.1132812 18.775391 C 9.11703 18.787255 9.1171432 18.800754 9.1210938 18.8125 C 9.1628935 18.937027 9.2177495 19.054679 9.2832031 19.164062 C 9.3260624 19.235688 9.3819072 19.297373 9.4355469 19.361328 C 9.4637279 19.394901 9.484365 19.433581 9.515625 19.464844 L 9.5253906 19.474609 L 21.169922 31.119141 z " color="#000" font-family="sans-serif" font-weight="400" transform="translate(0 1020.362)" white-space="normal" class="color154082 svgShape"></path><path fill="#ffffff" style="line-height:normal;text-indent:0;text-align:start;text-decoration-line:none;text-decoration-style:solid;text-decoration-color:#000;text-transform:none;block-progression:tb;isolation:auto;mix-blend-mode:normal" d="M 3,2 C 2.4166667,2 1.889343,2.1536844 1.5214844,2.5214844 1.1536258,2.8892844 1,3.4169 1,4 L 1,9 C 1,9.5834 1.1555227,10.111109 1.5253906,10.474609 1.8952586,10.838209 2.419521,10.984375 3,10.984375 l 1.7402344,0.03125 a 0.50005,0.50005 0 0 0 0.00977,0 l 3.0234375,0 3.3457031,3.816406 a 0.50005,0.50005 0 0 0 0.875,-0.330078 l 0.0078,-3.498047 L 13,10.984375 c 0.5805,0 1.104742,-0.146166 1.474609,-0.509766 C 14.844477,10.111109 15,9.5834 15,9 l 0,-5 c 0,-0.5833 -0.155608,-1.1076031 -0.523438,-1.4707031 -0.367827,-0.363 -0.886135,-0.5123438 -1.46289,-0.5273438 a 0.50005,0.50005 0 0 0 -0.01367,0 l -5,0 -5,0 L 3,2 Z m 0,1 5,0 4.986328,0 c 0.423245,0.011 0.654937,0.1117875 0.78711,0.2421875 C 13.905608,3.3726875 14,3.5834 14,4 l 0,5 C 14,9.4167 13.90552,9.6338188 13.775391,9.7617188 13.645258,9.8897187 13.4195,9.984375 13,9.984375 a 0.50005,0.50005 0 0 0 -0.01172,0 l -1.498047,0.03125 a 0.50005,0.50005 0 0 0 -0.488281,0.5 l -0.0059,2.660156 L 8.375,10.1875 A 0.50005,0.50005 0 0 0 8,10.017578 l -3.2460938,0 -1.7441406,-0.033203 a 0.50005,0.50005 0 0 0 -0.00977,0 C 2.5805246,9.984375 2.3547445,9.889419 2.224605,9.7617188 2.0944742,9.6336188 2,9.4167 2,9 L 2,4 C 2,3.5836 2.096359,3.3607156 2.2285156,3.2285156 2.360672,3.0964156 2.5833333,3 3,3 Z" color="#000" font-family="sans-serif" font-weight="400" overflow="visible" transform="translate(8 1029.362)" white-space="normal" class="colorfff svgShape"></path></g></svg></g></svg>