<svg id="SvgjsSvg1001" width="288" height="288" xmlns="http://www.w3.org/2000/svg" version="1.1" xmlns:xlink="http://www.w3.org/1999/xlink" xmlns:svgjs="http://svgjs.com/svgjs"><defs id="SvgjsDefs1002"></defs><g id="SvgjsG1008" transform="matrix(0.9167,0,0,0.9167,11.995200000000011,11.995245758056654)"><svg xmlns="http://www.w3.org/2000/svg" width="288" height="288" viewBox="0 0 32 32"><g transform="translate(0 -1020.362)" fill="#000000" class="color000 svgShape"><circle cx="16" cy="1036.362" r="16" fill="#ed2a26" fill-rule="evenodd" class="color239fdb svgShape"></circle><path fill="#cc2622" style="line-height:normal;text-indent:0;text-align:start;text-decoration-line:none;text-decoration-style:solid;text-decoration-color:#000;text-transform:none;block-progression:tb;isolation:auto;mix-blend-mode:normal" d="M 20.681641 31.283203 A 16 16 0 0 0 21.796875 30.912109 A 16 16 0 0 0 23.257812 30.259766 A 16 16 0 0 0 24.644531 29.462891 A 16 16 0 0 0 25.945312 28.533203 A 16 16 0 0 0 27.146484 27.478516 A 16 16 0 0 0 28.238281 26.306641 A 16 16 0 0 0 29.205078 25.035156 A 16 16 0 0 0 30.041016 23.669922 A 16 16 0 0 0 30.736328 22.230469 A 16 16 0 0 0 31.285156 20.728516 A 16 16 0 0 0 31.294922 20.693359 L 21.300781 10.699219 C 19.942808 9.3412186 18.068104 8.5 16 8.5 C 11.86379 8.5 8.5 11.8638 8.5 16 C 8.5 18.0681 9.3412429 19.942781 10.699219 21.300781 L 20.681641 31.283203 z " color="#000" font-family="sans-serif" font-weight="400" transform="translate(0 1020.362)" white-space="normal" class="color0b5ecd svgShape"></path><path fill="#ffffff" style="line-height:normal;text-indent:0;text-align:start;text-decoration-line:none;text-decoration-style:solid;text-decoration-color:#000;text-transform:none;block-progression:tb;isolation:auto;mix-blend-mode:normal" d="M 8.5,1 C 4.36379,1 1,4.3638 1,8.5 1,12.6362 4.36379,16 8.5,16 12.63621,16 16,12.6362 16,8.5 16,4.3638 12.63621,1 8.5,1 Z m 0,1 C 12.09577,2 15,4.9043 15,8.5 15,12.0958 12.09577,15 8.5,15 4.90423,15 2,12.0958 2,8.5 2,4.9043 4.90423,2 8.5,2 Z m 1.988281,0.9609375 0,0.00195 A 0.50005,0.50005 0 0 0 10.125,3.1640625 L 5.6582031,9.1777344 a 0.50005,0.50005 0 0 0 0.3867188,0.796875 l 1.1191406,0.03125 -0.7363281,3.386719 a 0.50005,0.50005 0 0 0 0.9023437,0.384766 L 11.355469,7.7773438 A 0.50005,0.50005 0 0 0 10.941406,6.9980469 l -0.828125,0 0.896485,-3.4101563 A 0.50005,0.50005 0 0 0 10.488281,2.9609375 Z M 9.3867188,5.8339844 8.9824219,7.3730469 A 0.50005,0.50005 0 0 0 9.4648438,8 L 10.003906,8 7.9609375,11.044922 8.2675781,9.6328125 A 0.50005,0.50005 0 0 0 7.7949219,9.0273438 L 7.03125,9.0019531 9.3867188,5.8339844 Z" color="#000" font-family="sans-serif" font-weight="400" overflow="visible" transform="translate(7.5 1027.862)" white-space="normal" class="colorfff svgShape"></path></g></svg></g></svg>