<svg id="SvgjsSvg1001" width="288" height="288" xmlns="http://www.w3.org/2000/svg" version="1.1" xmlns:xlink="http://www.w3.org/1999/xlink" xmlns:svgjs="http://svgjs.com/svgjs"><defs id="SvgjsDefs1002"></defs><g id="SvgjsG1008" transform="matrix(0.9167,0,0,0.9167,11.995200000000011,11.995245758056654)"><svg xmlns="http://www.w3.org/2000/svg" width="288" height="288" viewBox="0 0 32 32"><g transform="translate(0 -1020.362)" fill="#000000" class="color000 svgShape"><circle cx="16" cy="1036.362" r="16" fill="#ed2a26" fill-rule="evenodd" class="color239fdb svgShape"></circle><path fill="#cc2622" style="line-height:normal;text-indent:0;text-align:start;text-decoration-line:none;text-decoration-style:solid;text-decoration-color:#000;text-transform:none;block-progression:tb;isolation:auto;mix-blend-mode:normal" d="M 20.681641 31.283203 A 16 16 0 0 0 21.796875 30.912109 A 16 16 0 0 0 23.257812 30.259766 A 16 16 0 0 0 24.644531 29.462891 A 16 16 0 0 0 25.945312 28.533203 A 16 16 0 0 0 27.146484 27.478516 A 16 16 0 0 0 28.238281 26.306641 A 16 16 0 0 0 29.205078 25.035156 A 16 16 0 0 0 30.041016 23.669922 A 16 16 0 0 0 30.736328 22.230469 A 16 16 0 0 0 31.285156 20.728516 A 16 16 0 0 0 31.294922 20.693359 L 21.300781 10.699219 C 19.942807 9.3412186 18.068105 8.5 16 8.5 C 11.863788 8.5 8.4999946 11.8638 8.5 16 C 8.4999973 18.0681 9.3412435 19.942781 10.699219 21.300781 L 20.681641 31.283203 z " color="#000" font-family="sans-serif" font-weight="400" transform="translate(0 1020.362)" white-space="normal" class="color0b5ecd svgShape"></path><path fill="#ffffff" style="line-height:normal;text-indent:0;text-align:start;text-decoration-line:none;text-decoration-style:solid;text-decoration-color:#000;text-transform:none;block-progression:tb;isolation:auto;mix-blend-mode:normal" d="M 8.5,1 C 4.3637879,1 0.99999462,4.3638 1,8.5 0.99999462,12.6362 4.3637879,16 8.5,16 12.636212,16 16.000005,12.6362 16,8.5 16.000005,4.3638 12.636212,1 8.5,1 Z m 0,1 c 3.595771,0 6.500005,2.9043 6.5,6.5 5e-6,3.5958 -2.904229,6.5 -6.5,6.5 C 4.9042285,15 1.9999953,12.0958 2,8.5 1.9999953,4.9043 4.9042285,2 8.5,2 Z M 8.3007812,3.5058594 C 7.9228067,3.5356396 7.5498136,3.6514312 7.2109375,3.8554688 6.3072391,4.3996688 5.8402445,5.4581875 6.0488281,6.4921875 A 0.50006999,0.50006999 0 0 0 7.0292969,6.2949219 c -0.1257053,-0.6232 0.1526376,-1.2540313 0.6972656,-1.5820313 0.5446345,-0.328 1.2326397,-0.2795531 1.7246094,0.1230469 0.4919793,0.4027 0.6747451,1.0672156 0.4609375,1.6660156 C 9.6983379,7.1006531 9.1357121,7.4981469 8.5,7.4980469 A 0.50005,0.50005 0 0 0 8.0078125,8.1132812 l 0,2.9804688 a 0.50005,0.50005 0 1 0 1,0 l 0,-2.6523438 C 9.8482661,8.2660492 10.557026,7.668258 10.853516,6.8378906 11.208244,5.8444906 10.898353,4.7326531 10.082031,4.0644531 9.5718291,3.6469531 8.9307388,3.4562256 8.3007812,3.5058594 Z m 0.2070313,9.0507816 a 0.5,0.5 0 0 0 -0.5,0.5 0.5,0.5 0 0 0 0.5,0.5 0.5,0.5 0 0 0 0.5,-0.5 0.5,0.5 0 0 0 -0.5,-0.5 z" color="#000" font-family="sans-serif" font-weight="400" overflow="visible" transform="translate(7.5 1027.862)" white-space="normal" class="colorfff svgShape"></path></g></svg></g></svg>