<?xml version="1.0" encoding="utf-8"?>
<!-- Generator: Adobe Illustrator 18.0.0, SVG Export Plug-In . SVG Version: 6.00 Build 0)  -->
<!DOCTYPE svg PUBLIC "-//W3C//DTD SVG 1.1//EN" "http://www.w3.org/Graphics/SVG/1.1/DTD/svg11.dtd">
<svg version="1.1" id="Layer_1" xmlns="http://www.w3.org/2000/svg" xmlns:xlink="http://www.w3.org/1999/xlink" x="0px" y="0px"
	 viewBox="0 110.3 612 559.7" enable-background="new 0 110.3 612 559.7" xml:space="preserve">
<path fill="#FFFFFF" d="M263.5,296.3l136.3,78.5c23.5,13,23.5,47,0,60l-136.3,79.2c-23.5,13-52.1-3.6-52.1-30V326.3
	C211.4,299.9,240,283.3,263.5,296.3z"/>
<g>
	<path fill="#FFFFFF" d="M567.1,148.7c-24.8,0-44.9,20.1-44.9,44.9c0,24.8,20.1,44.9,44.9,44.9c24.8,0,44.9-20.1,44.9-44.9
		C612,168.8,591.9,148.7,567.1,148.7z"/>
	<path fill="#FFFFFF" d="M481.5,154.8c12.3,0.5,22.6-9.1,23-21.4c0.5-12.3-9.1-22.6-21.4-23c-12.3-0.4-22.6,9.1-23,21.4
		C459.6,144,469.2,154.3,481.5,154.8z"/>
	<path fill="#FFFFFF" d="M28.8,572.1c-14.3-0.5-26.4,10.7-26.9,25c-0.5,14.4,10.7,26.4,25,26.9c14.3,0.5,26.4-10.7,26.9-25
		C54.4,584.7,43.2,572.6,28.8,572.1z"/>
	<path fill="#FFFFFF" d="M285.1,140.6c-3,0.2-5.9,0.3-8.9,0.5C130.4,153.6,22.4,282,34.9,427.8c1.2,14.3,3.6,28.3,7,41.8
		C59,538.1,102.4,595.2,160,630.7c46.7,28.8,102.7,43.4,161.5,38.3c99-8.5,180.5-70.4,218.8-155c18.1-39.9,26.5-84.9,22.5-131.7
		C550.5,239.6,427.2,133.1,285.1,140.6z"/>
</g>
<path fill="#333333" d="M257.9,285.4l154.8,89.1c26.7,14.8,26.7,53.4,0,68.1l-154.8,89.9c-26.7,14.8-59.1-4.1-59.1-34.1v-179
	C198.8,289.5,231.2,270.6,257.9,285.4z"/>
</svg>
