<svg baseProfile="tiny" xmlns="http://www.w3.org/2000/svg" viewBox="0 0 441.8 155.9"><path fill="#FF4500" d="M273.8 5.9s13 9.1 0 10.8c0 0-48.7 5.7-84.9 39.6 0 0-54.3 47.5-74.7 99.6 0 0-6.8 0-4.5-10.2s15.8-54.9 76.4-109.8c0 0 58.3-53.2 87.7-30m-154.5 6.8c.6 12.5 11.3 60 11.3 60 4 9.6 7.4 0 7.4 0 13-39.1-13.6-61.7-13.6-61.7-6.8-4-5.1 1.7-5.1 1.7"/><path fill="#626363" d="M14.2 45.2c4.8-1.2 12.4-1.9 19.7-1.9 6.9 0 14.6 1.1 20.1 5.1 5.2 3.4 8.2 8.8 8.2 16.1 0 9.4-4.4 16.8-10.2 21.2-6.2 4.8-15.1 7.1-24.3 7.1-2.7 0-4.9-.3-6.6-.4l-5.2 27.2h-15.9l14.2-74.4zm9.3 33.8c1.8.3 3.5.6 6.3.6 9.7 0 16.1-6.2 16.1-13.8 0-7.2-5.2-9.6-11.5-9.6-3 0-5.3.2-6.6.5l-4.3 22.3zm70.7 40.5c.1-3.1.5-7 .7-10.9h-.2c-5.2 9.1-12.3 12.1-18.7 12.1-9.9 0-16.6-7.6-16.6-19.1 0-18.6 12.4-38.3 39.4-38.3 6.6 0 13.6 1.2 18.1 2.7l-5.5 28.8c-1.3 7.1-2.5 17.9-2.2 24.7h-15zm4.4-43.5c-1.2-.2-2.6-.5-4.3-.5-10.5 0-18.1 12.8-18.1 23 0 5.4 2.1 9.1 6.6 9.1 4.8 0 11-5.5 13.5-19l2.3-12.6zm97.8 44.8c-14 0-23.4-9.1-23.4-22.7 0-19 13.3-34.7 32.8-34.7 14.8 0 23.4 10.1 23.4 22.7 0 20-13.8 34.7-32.7 34.7h-.1zm2.1-12.4c8.8 0 13.8-12.9 13.8-22.3 0-5.2-2.2-10.5-8.7-10.5-9.3 0-14.1 13.5-14.1 22 0 6.4 3.3 10.7 8.8 10.7h.2zm32.9 11.1l7-37.1c1.4-7 2.3-12.9 2.9-17.9h14.3l-1 9.1h.2c5.2-7.1 12-10.3 19.2-10.3 9 0 14.2 5.5 14.2 15.1 0 2.5-.4 6.5-.9 9.2l-6.1 31.9h-16.2l5.7-30.5c.3-1.9.6-4 .6-6.1 0-3.9-1.3-6.6-5.5-6.6-5.3 0-11.4 6.6-13.7 18.8l-4.5 24.4h-16.2zm106.8-3.1c-6.4 3.3-14.4 4.4-20.5 4.4-15.7 0-23.8-8.9-23.8-23.3 0-16.8 12.1-34.2 32-34.2 11.1 0 19.1 6.3 19.1 16.5 0 13.9-13.6 19-35.6 18.4 0 1.6.6 4 1.7 5.6 2.1 2.8 5.8 4.3 10.6 4.3 6 0 11-1.4 15.4-3.5l1.1 11.8zm-8.3-36.7c0-2.7-2.2-4.6-6-4.6-7.5 0-11.8 6.3-12.9 11.4 12.6.1 18.9-1.6 18.9-6.6v-.2zm61.7 36.7c-6.4 3.3-14.4 4.4-20.5 4.4-15.7 0-23.8-8.9-23.8-23.3 0-16.8 12.1-34.2 32-34.2 11.1 0 19.1 6.3 19.1 16.5 0 13.9-13.6 19-35.6 18.4 0 1.6.6 4 1.7 5.6 2.1 2.8 5.8 4.3 10.6 4.3 6 0 11-1.4 15.4-3.5l1.1 11.8zm-8.3-36.7c0-2.7-2.2-4.6-6-4.6-7.5 0-11.8 6.3-12.9 11.4 12.6.1 18.9-1.6 18.9-6.6v-.2zm15.5 39.8l6.3-32.7c1.5-8.3 2.3-17.5 2.8-22.3h13.9c-.2 3.7-.6 7.4-1 11.4h.4c3.8-7.4 9.9-12.6 17.4-12.6 1.1 0 2.1.1 3 .1l-3.2 15.9c-.7-.1-1.6-.1-2.5-.1-10.2 0-15.2 9.1-17.2 19.9l-3.8 20.5h-16.1z"/></svg>