<svg id="SvgjsSvg1001" width="288" height="288" xmlns="http://www.w3.org/2000/svg" version="1.1" xmlns:xlink="http://www.w3.org/1999/xlink" xmlns:svgjs="http://svgjs.com/svgjs"><defs id="SvgjsDefs1002"></defs><g id="SvgjsG1008" transform="matrix(0.9167,0,0,0.9167,11.995402574729923,11.995337274169941)"><svg xmlns="http://www.w3.org/2000/svg" width="288" height="288" viewBox="0 0 48 48"><g transform="translate(-8 -1008.495)" fill="#000000" class="color000 svgShape"><g transform="matrix(1.92 0 0 1.92 -39.126 977.95)" fill="#000000" class="color000 svgShape"><circle cx="37.045" cy="28.409" r="12.5" fill="#ed2a26" fill-rule="evenodd" class="color50b748 svgShape"></circle></g><path fill="#cc2622" style="line-height:normal;text-indent:0;text-align:start;text-decoration-line:none;text-decoration-style:solid;text-decoration-color:#000;text-transform:none;block-progression:tb;isolation:auto;mix-blend-mode:normal" d="M 12.5 13.433594 C 11.66035 13.433594 11 14.093994 11 14.933594 L 11 15.433594 L 15 19.433594 L 15 35.433594 L 27.310547 47.744141 A 23.999998 23.999998 0 0 0 47.509766 28.8125 L 32.564453 13.869141 C 32.294409 13.599091 31.919825 13.433594 31.5 13.433594 L 14.486328 13.433594 C 14.803978 13.852894 15 14.369394 15 14.933594 L 15 15.304688 L 13.564453 13.869141 C 13.294409 13.599091 12.919825 13.433594 12.5 13.433594 z " color="#000" font-family="sans-serif" font-weight="400" transform="translate(8 1008.495)" white-space="normal" class="color10a711 svgShape"></path><path fill="#ffffff" d="m 20.50092,1021.9282 c -0.83965,0 -1.5,0.6604 -1.5,1.5 l 0,0.5 3,0 0,-0.5 c 0,-0.8396 -0.66035,-1.5 -1.5,-1.5 z m 1.986328,0 c 0.31765,0.4193 0.513672,0.9358 0.513672,1.5 l 0,0.5 0,20 4.25,0 6.75,0 0,-1.7832 c -0.60881,-0.5499 -1,-1.3361 -1,-2.2168 0,-1.6509 1.34907,-3 3,-3 1.65093,0 3,1.3491 3,3 0,0.8807 -0.39119,1.6669 -1,2.2168 l 0,1.7832 3,0 0,-20.5 c 0,-0.8396 -0.66035,-1.5 -1.5,-1.5 l -17.013672,0 z m 5.513672,2 8,0 0,1 -8,0 0,-1 z m -3,3 14,0 0,1 -14,0 0,-1 z m 0,2 14,0 0,1 -14,0 0,-1 z m 0,2 14,0 0,1 -14,0 0,-1 z m 0,2 14,0 0,1 -14,0 0,-1 z m 0,2 14,0 0,1 -14,0 0,-1 z m 0,2 7,0 0,1 -7,0 0,-1 z m 11,1 c -1.11049,0 -2,0.8896 -2,2 0,1.1105 0.88951,2 2,2 1.11049,0 2,-0.8895 2,-2 0,-1.1104 -0.88951,-2 -2,-2 z m -1,4.8145 0,2.7519 0.722656,-0.4824 c 0.16795,-0.1119 0.386738,-0.1119 0.554688,0 l 0.722656,0.4824 0,-2.7519 c -0.31421,0.1125 -0.64826,0.1855 -1,0.1855 -0.35174,0 -0.68579,-0.073 -1,-0.1855 z" color="#000" font-family="sans-serif" font-weight="400" overflow="visible" white-space="normal" style="line-height:normal;text-indent:0;text-align:start;text-decoration-line:none;text-decoration-style:solid;text-decoration-color:#000;text-transform:none;block-progression:tb;isolation:auto;mix-blend-mode:normal" class="colorfff svgShape"></path></g></svg></g></svg>