<svg xmlns="http://www.w3.org/2000/svg" data-name="Layer 1" viewBox="0 0 512 512"><path fill="#63ea86" d="M131.94,185.26H92a10.51,10.51,0,0,0-7.41,3.07l-13.8,13.8a3.91,3.91,0,0,1-5.55,0l-13.8-13.8A10.53,10.53,0,0,0,44,185.26H18A10.48,10.48,0,0,1,7.5,174.79V108A10.48,10.48,0,0,1,18,97.5h114A10.48,10.48,0,0,1,142.42,108v66.81A10.48,10.48,0,0,1,131.94,185.26Z"/><path fill="#3ce568" d="M131.94,97.5h-27.4A10.48,10.48,0,0,1,115,108v66.81a10.47,10.47,0,0,1-10.47,10.47h27.4a10.48,10.48,0,0,0,10.48-10.47V108A10.48,10.48,0,0,0,131.94,97.5Z"/><path fill="#676e87" d="M317.92,92.73l-8.12-6.34a5.34,5.34,0,0,1-2-4.89,52.53,52.53,0,0,0,0-13.57,5.34,5.34,0,0,1,2-4.89l8.12-6.34a5.31,5.31,0,0,0,1.34-6.85L309.17,32.37a5.32,5.32,0,0,0-6.61-2.27L293,34a5.3,5.3,0,0,1-5.23-.72A52.4,52.4,0,0,0,276,26.44a5.31,5.31,0,0,1-3.24-4.16l-1.43-10.2a5.31,5.31,0,0,0-5.27-4.58H245.91a5.31,5.31,0,0,0-5.27,4.58l-1.43,10.2A5.31,5.31,0,0,1,236,26.44a52.4,52.4,0,0,0-11.75,6.8A5.3,5.3,0,0,1,219,34l-9.55-3.86a5.32,5.32,0,0,0-6.61,2.27L192.74,49.85a5.31,5.31,0,0,0,1.34,6.85L202.2,63a5.34,5.34,0,0,1,2,4.89,52.53,52.53,0,0,0,0,13.57,5.34,5.34,0,0,1-2,4.89l-8.12,6.34a5.32,5.32,0,0,0-1.34,6.85l10.09,17.49a5.34,5.34,0,0,0,6.61,2.27l9.55-3.87a5.33,5.33,0,0,1,5.23.73A52.36,52.36,0,0,0,236,123a5.31,5.31,0,0,1,3.24,4.17l1.43,10.19a5.31,5.31,0,0,0,5.27,4.58h20.18a5.31,5.31,0,0,0,5.27-4.58l1.43-10.19A5.31,5.31,0,0,1,276,123a52.36,52.36,0,0,0,11.75-6.79,5.33,5.33,0,0,1,5.23-.73l9.55,3.87a5.34,5.34,0,0,0,6.61-2.27l10.09-17.49A5.32,5.32,0,0,0,317.92,92.73ZM256,93.85a19.14,19.14,0,1,1,19.13-19.13A19.13,19.13,0,0,1,256,93.85Z"/><path fill="#595f74" d="M317.92,92.73l-8.12-6.34a5.34,5.34,0,0,1-2-4.89,52.53,52.53,0,0,0,0-13.57,5.34,5.34,0,0,1,2-4.89l8.12-6.34a5.31,5.31,0,0,0,1.34-6.85L309.17,32.37a5.32,5.32,0,0,0-6.61-2.27L293,34a5.3,5.3,0,0,1-5.23-.72A52.4,52.4,0,0,0,276,26.44a5.31,5.31,0,0,1-3.24-4.16l-1.43-10.2a5.31,5.31,0,0,0-5.27-4.58H245.91a5.31,5.31,0,0,0-5.27,4.58L240.1,16h2.42a5.32,5.32,0,0,1,5.27,4.58l1.43,10.19a5.3,5.3,0,0,0,3.23,4.17,52.59,52.59,0,0,1,11.76,6.79,5.3,5.3,0,0,0,5.23.73L279,38.55a5.32,5.32,0,0,1,6.6,2.28l10.1,17.48a5.32,5.32,0,0,1-1.34,6.85l-8.12,6.34a5.34,5.34,0,0,0-2,4.89,52.53,52.53,0,0,1,0,13.57,5.34,5.34,0,0,0,2,4.89l8.12,6.34a5.33,5.33,0,0,1,1.34,6.85l-4.09,7.08a5.82,5.82,0,0,1,1.41.35l9.55,3.87a5.34,5.34,0,0,0,6.61-2.27l10.09-17.49A5.32,5.32,0,0,0,317.92,92.73Z"/><path fill="#ffe966" d="M486.85,91.32l-7.31,7.31-15.93,15.94-28.15,28.14-39.9,39.9-29.88,4.93a2.77,2.77,0,0,1-3.19-3.19l4.93-29.88,39.9-39.91,28.14-28.14,23.25-23.25a19.9,19.9,0,0,1,28.14,28.15Z"/><path fill="#ffe236" d="M486.85,63.17a19.9,19.9,0,0,0-21.57-4.36,19.9,19.9,0,0,1,6.57,32.51l-7.31,7.31-15.93,15.94-28.15,28.14-39.9,39.9-18,3a2.76,2.76,0,0,0,3.11,2l29.88-4.93,39.9-39.9,28.15-28.14,15.93-15.94,7.31-7.31A19.91,19.91,0,0,0,486.85,63.17Z"/><path fill="#f66" d="M486.85,91.32l-7.31,7.31L451.4,70.48l7.31-7.31a19.9,19.9,0,0,1,28.14,28.15Z"/><path fill="#ff4e4e" d="M486.85,63.17a19.9,19.9,0,0,0-21.57-4.36A19.89,19.89,0,0,1,472,91.12l7.51,7.51,7.31-7.31A19.91,19.91,0,0,0,486.85,63.17Z"/><path fill="#fff8cc" d="M395.56,182.61l-29.88,4.93a2.77,2.77,0,0,1-3.19-3.19l4.93-29.88Z"/><path fill="#ffed80" d="M388.19,175l-25.49,8.09-.21,1.28a2.77,2.77,0,0,0,3.19,3.19l29.88-4.93Z"/><rect width="61.32" height="39.81" x="397.19" y="102.27" fill="#ffe236" transform="rotate(-44.99 427.89 122.172)"/><path fill="#ffc166" d="M369.07,63.18h0a19.9,19.9,0,0,0,0,28.14l66.43,66.42a7.41,7.41,0,0,0,10.47,0l17.67-17.67a7.41,7.41,0,0,0,0-10.47L397.21,63.18A19.9,19.9,0,0,0,369.07,63.18Z"/><path fill="#ffb74e" d="M463.64,129.6,397.21,63.18a19.91,19.91,0,0,0-21.57-4.37,19.83,19.83,0,0,1,6.57,4.37l66.43,66.42a7.41,7.41,0,0,1,0,10.47l-15.41,15.41,2.27,2.26a7.41,7.41,0,0,0,10.47,0l17.67-17.67A7.41,7.41,0,0,0,463.64,129.6Z"/><path fill="#fff8cc" d="M444.92,158.62c3.88,19.74,10.49,26.3,16.3,28.3,6.23,2.13,10.9-1.19,19.13,1.13,8.77,2.48,14.6,9.41,18.28,15.24,10.58-19.32,7.68-41.65-5.58-53.86-10.39-9.57-23.86-9.89-29.15-9.63h0"/><path fill="#ffed80" d="M493.05,149.43c-10.39-9.57-23.86-9.89-29.15-9.63h0l-1.38,1.37a35.93,35.93,0,0,1,15.54,8.25c10.7,9.86,14.65,26.31,10.21,42.45a39.93,39.93,0,0,1,10.37,11.41C509.21,184,506.31,161.64,493.05,149.43Z"/><path fill="#66c1ff" d="M409.05,449v31.91a23.58,23.58,0,0,1-23.58,23.58H126.53A23.58,23.58,0,0,1,103,480.92V449l1.77-18.27q.07-.8.18-1.59c2.94-23.68,20.62-42.9,43.8-48.61L206.39,370,256,295.2l50.2,74.25,57.1,11.09c23.18,5.71,40.86,24.93,43.8,48.61q.11.8.18,1.59Z"/><polygon fill="#ffcd85" points="211.73 361.91 256 295.2 300.81 361.47 256 401.24 211.73 361.91"/><path fill="#ffc166" d="M256,295.2l-9.39,14.16L273.38,349a17.24,17.24,0,0,1-2.84,22.55l-24,21.32,9.48,8.42,44.8-39.77Z"/><path fill="#4eb7ff" d="M292,427.7l34.26-51.22a5,5,0,0,0-1.23-6.83L309.81,358.7a5,5,0,0,0-6.24.32L256,401.24l28.36,27.29A5,5,0,0,0,292,427.7Z"/><path fill="#4eb7ff" d="M220.06,427.7,185.8,376.48a5,5,0,0,1,1.23-6.83l15.21-10.95a5,5,0,0,1,6.24.32l47.57,42.22-28.37,27.29A5,5,0,0,1,220.06,427.7Z"/><path fill="#676e87" d="M292.06,245.53l-96.18,22.56V200.76c0-12.46,10.78-25.78,24.06-25.78h92.25a3.93,3.93,0,0,1,3.93,3.93V223C316.12,235.43,305.34,245.53,292.06,245.53Z"/><path fill="#595f74" d="M312.19,175H290.36a3.92,3.92,0,0,1,3.92,3.93V223c0,12.45-10.77,22.55-24,22.55L195.88,263v5.12l96.18-22.56c13.28,0,24.06-10.1,24.06-22.55V178.91A3.93,3.93,0,0,0,312.19,175Z"/><path fill="#ffcd85" d="M205.88,233.75H306.12a10,10,0,0,1,10,10V299a55.89,55.89,0,0,1-55.89,55.89h-8.46A55.89,55.89,0,0,1,195.88,299V243.75a10,10,0,0,1,10-10Z"/><path fill="#ffc166" d="M306.12,233.75H281.55a10,10,0,0,1,10,10V299a55.89,55.89,0,0,1-47.83,55.3,56.18,56.18,0,0,0,8.05.59h8.46A55.89,55.89,0,0,0,316.12,299V243.75A10,10,0,0,0,306.12,233.75Z"/><path fill="#272a33" d="M498.13,143.91a44.86,44.86,0,0,0-25-11.22,14.85,14.85,0,0,0-4.19-8.39l-2.23-2.23,25.45-25.45a27.4,27.4,0,0,0-38.75-38.75L428,83.32,402.52,57.87a27.4,27.4,0,0,0-38.75,38.75l25.44,25.45-27.1,27.1a7.37,7.37,0,0,0-.68.8l-.13.17a8.33,8.33,0,0,0-.55.9v0a8.29,8.29,0,0,0-.41,1,.78.78,0,0,1-.05.14,9.47,9.47,0,0,0-.25,1s0,0,0,.06l-4.94,29.88a10.29,10.29,0,0,0,10.15,12,10.46,10.46,0,0,0,1.67-.14L396.78,190h.06a8.76,8.76,0,0,0,1-.25l.15-.06a6.71,6.71,0,0,0,1-.4h0a8.33,8.33,0,0,0,.9-.55l.17-.13a7.37,7.37,0,0,0,.8-.68l27.1-27.1,2.23,2.23a14.84,14.84,0,0,0,9.06,4.28c4,14.79,10.44,23.55,19.54,26.68,4.53,1.56,8.48,1.19,11.65.9a19.49,19.49,0,0,1,7.87.36c5.16,1.46,9.86,5.5,14,12a7.5,7.5,0,0,0,6.34,3.5h.23a7.5,7.5,0,0,0,6.35-3.89C517.11,185.14,514.14,158.66,498.13,143.91ZM464,68.48A12.4,12.4,0,0,1,481.55,86l-2,2L462,70.49ZM451.4,81.09l17.53,17.54L456.1,111.46,438.57,93.93Zm-80.44,98,1.48-9,7.49,7.49Zm24.6-7.07L378,154.47l21.8-21.8,17.53,17.54Zm45.17-19.63-7.46-7.46h0L374.38,86a12.4,12.4,0,0,1,17.53-17.53l30.74,30.75h0l28.13,28.13h0l7.46,7.46Zm55.58,36.37a34.51,34.51,0,0,0-13.93-7.91,34.13,34.13,0,0,0-13.33-.86c-2.57.24-4,.34-5.39-.14-4.28-1.47-8-8.05-10.5-18.67l13.9-13.9c5.31.14,14.11,1.43,20.91,7.69C496.51,162.81,499.46,175.9,496.31,188.74Zm-388.8-68.28H42.41a7.5,7.5,0,1,0,0,15h65.1a7.5,7.5,0,1,0,0-15ZM256,101.35a26.64,26.64,0,1,0-26.63-26.63A26.66,26.66,0,0,0,256,101.35Zm0-38.27a11.64,11.64,0,1,1-11.63,11.64A11.64,11.64,0,0,1,256,63.08Zm-69.75,40.25,10.09,17.49a12.87,12.87,0,0,0,15.91,5.47l8.4-3.4A59.83,59.83,0,0,0,232,129.43l1.25,9a12.87,12.87,0,0,0,12.7,11h20.18a12.87,12.87,0,0,0,12.7-11l1.25-9a59.83,59.83,0,0,0,11.31-6.54l8.4,3.4a12.88,12.88,0,0,0,15.91-5.47l10.09-17.49a12.87,12.87,0,0,0-3.21-16.51l-7.14-5.58a61,61,0,0,0,0-13l7.14-5.58a12.87,12.87,0,0,0,3.21-16.51L315.66,28.62a12.88,12.88,0,0,0-15.91-5.48l-8.4,3.4A59,59,0,0,0,280,20l-1.25-9a12.88,12.88,0,0,0-12.7-11H245.91a12.88,12.88,0,0,0-12.7,11L232,20a59,59,0,0,0-11.31,6.53l-8.4-3.4a12.87,12.87,0,0,0-15.91,5.48L186.25,46.1a12.87,12.87,0,0,0,3.21,16.51l7.14,5.58a61,61,0,0,0,0,13l-7.14,5.58A12.87,12.87,0,0,0,186.25,103.33Zm25.37-22.8a45.88,45.88,0,0,1,0-11.63,12.86,12.86,0,0,0-4.81-11.77L200.18,52l8.2-14.2,7.8,3.15a12.87,12.87,0,0,0,12.61-1.72,44.68,44.68,0,0,1,10.06-5.82,12.87,12.87,0,0,0,7.79-10L247.8,15h16.4l1.16,8.32a12.87,12.87,0,0,0,7.79,10,44.68,44.68,0,0,1,10.06,5.82,12.87,12.87,0,0,0,12.61,1.72l7.8-3.15,8.2,14.2-6.63,5.17a12.86,12.86,0,0,0-4.81,11.77,46,46,0,0,1,0,11.64,12.85,12.85,0,0,0,4.81,11.76l6.63,5.18-8.2,14.19-7.79-3.15a12.89,12.89,0,0,0-12.62,1.73,44.48,44.48,0,0,1-10.06,5.81,12.89,12.89,0,0,0-7.79,10.06l-1.16,8.31H247.8l-1.16-8.31a12.89,12.89,0,0,0-7.79-10.06,44.48,44.48,0,0,1-10.06-5.81,12.88,12.88,0,0,0-12.61-1.73l-7.8,3.15-8.2-14.19,6.63-5.18A12.86,12.86,0,0,0,211.62,80.53ZM107.51,150.46H42.41a7.5,7.5,0,0,0,0,15h65.1a7.5,7.5,0,1,0,0-15Zm127.9,160a7.5,7.5,0,0,0,2.13,10.39,33.5,33.5,0,0,0,17.9,5.56H256a34,34,0,0,0,18.53-5.57,7.5,7.5,0,0,0-8.26-12.52,18.51,18.51,0,0,1-20.49,0A7.5,7.5,0,0,0,235.41,310.48Zm-5.61-33.27a7.5,7.5,0,0,0,7.5-7.5V262.1a7.5,7.5,0,1,0-15,0v7.61A7.5,7.5,0,0,0,229.8,277.21ZM414.75,430c-.06-.62-.13-1.25-.21-1.81-3.27-26.4-23.15-48.49-49.45-55l-.36-.08-30.19-5.86a12.41,12.41,0,0,0-2.28-1.92l-18.44-11.89a12.58,12.58,0,0,0-10.33-1.46l-2.28-3.37a63.25,63.25,0,0,0,22.41-48.3V245.15a17.37,17.37,0,0,0-2.53-9,28.77,28.77,0,0,0,2.53-11.76V180.31a11.45,11.45,0,0,0-11.43-11.43H219.94c-18.06,0-31.56,17.57-31.56,33.28v98.22a63.28,63.28,0,0,0,22.87,48.7l-2.38,3.59a12.53,12.53,0,0,0-11.16,2.54l-12.85,10.87a3.31,3.31,0,0,0-.27.26l-37.24,6.83a3.12,3.12,0,0,0-.44.09c-26.3,6.48-46.18,28.57-49.44,54.91-.09.62-.16,1.25-.22,1.85l-1.76,18.27a5.79,5.79,0,0,0,0,.72v31.91A31.11,31.11,0,0,0,126.53,512H385.47a31.11,31.11,0,0,0,31.08-31.08V449a5.79,5.79,0,0,0,0-.72ZM307.28,367.15l14.62,9.42-34.19,46.18-20.66-19.89ZM256,392.59l-35-31.06,2.83-4.27a63,63,0,0,0,28,6.51h8.46A63,63,0,0,0,288.71,357l2.79,4.12ZM203.38,202.16c0-8.28,7.39-18.28,16.56-18.28h88.68v40.5a13.44,13.44,0,0,1-.44,3.4,17.53,17.53,0,0,0-2.06-.13H205.88a17.21,17.21,0,0,0-2.5.2Zm0,98.22V245.15a2.5,2.5,0,0,1,2.5-2.5H306.12a2.5,2.5,0,0,1,2.5,2.5v55.23a48.45,48.45,0,0,1-48.39,48.39h-8.46A48.45,48.45,0,0,1,203.38,300.38Zm2.36,67.68L245,402.86l-20.13,19.38-28.66-46.1Zm20.75,56.8Zm175.06,56.06A16.09,16.09,0,0,1,385.47,497H363V467.73a7.5,7.5,0,0,0-15,0V497H164V467.73a7.5,7.5,0,0,0-15,0V497H126.53a16.09,16.09,0,0,1-16.08-16.08V449.37l1.74-17.93c0-.43.09-.87.15-1.36,2.51-20.2,17.74-37.14,37.94-42.2L182.21,382l.11.21,31.43,50.55h0a12.46,12.46,0,0,0,9.07,5.81,13.6,13.6,0,0,0,1.56.09,12.45,12.45,0,0,0,8.65-3.49l23-22.12,23.35,22.46A12.46,12.46,0,0,0,288,439c.35,0,.7,0,1.05,0a12.5,12.5,0,0,0,9-5l37.46-50.61c.12-.16.22-.33.33-.5l25.81,5c20.22,5.05,35.47,22,38,42.27.05.43.1.87.15,1.33l1.73,17.9ZM256,467.73a7.5,7.5,0,1,0,7.5,7.5A7.5,7.5,0,0,0,256,467.73Zm-106.08-293V108a18,18,0,0,0-18-18H18A18,18,0,0,0,0,108v66.8a18,18,0,0,0,18,18H44a2.93,2.93,0,0,1,2.1.88l13.8,13.8a11.43,11.43,0,0,0,16.17,0l13.8-13.8a2.93,2.93,0,0,1,2.1-.88h40A18,18,0,0,0,149.92,174.78ZM79.28,183,68,194.31,56.73,183A17.85,17.85,0,0,0,44,177.76H18a3,3,0,0,1-3-3V108a3,3,0,0,1,3-3h114a3,3,0,0,1,3,3v66.8a3,3,0,0,1-3,3H92A17.85,17.85,0,0,0,79.28,183ZM256,432.8a7.5,7.5,0,1,0,7.5,7.5A7.5,7.5,0,0,0,256,432.8Zm26.2-155.59a7.5,7.5,0,0,0,7.5-7.5V262.1a7.5,7.5,0,1,0-15,0v7.61A7.5,7.5,0,0,0,282.2,277.21Z"/></svg>